<svg width="315" height="320" viewBox="0 0 315 320" fill="none" xmlns="http://www.w3.org/2000/svg">
<path fill-rule="evenodd" clip-rule="evenodd" d="M286.072 155.82L285.2 157.128L284.357 158.418L283.543 159.69L282.759 160.947L282.006 162.189L281.285 163.418L280.595 164.635L279.937 165.841L279.311 167.039L278.717 168.229L278.154 169.412L277.622 170.59L277.121 171.765L276.651 172.937L276.211 174.107L275.8 175.278L275.42 176.45L275.069 177.624L274.747 178.803L274.453 179.986L274.188 181.176L273.951 182.373L273.74 183.578L273.557 184.794L273.399 186.02L273.267 187.259L273.159 188.51L273.076 189.776L273.015 191.057L272.978 192.354L272.961 193.668L272.966 195L272.991 196.352L273.035 197.724L273.097 199.116L273.177 200.531L273.274 201.968L273.386 203.429L273.514 204.915L273.657 206.426L273.813 207.964L273.981 209.528L274.161 211.121L274.351 212.741L274.549 214.39L274.754 216.068L274.964 217.775L275.177 219.511L275.393 221.277L275.607 223.072L275.82 224.895L276.028 226.747L276.229 228.626L276.421 230.533L276.602 232.466L276.77 234.424L276.922 236.407L277.055 238.412L277.168 240.439L277.258 242.487L277.323 244.552L277.36 246.634L277.367 248.731L277.342 250.841L277.283 252.962L277.188 255.091L277.054 257.226L276.879 259.364L276.663 261.504L276.402 263.642L276.095 265.777L275.741 267.904L275.338 270.022L274.885 272.127L274.38 274.218L273.824 276.29L273.214 278.342L272.55 280.369L271.831 282.37L271.057 284.342L270.228 286.281L269.344 288.186L268.403 290.053L267.408 291.88L266.357 293.664L265.252 295.402L264.092 297.093L262.879 298.735L261.614 300.324L260.298 301.859L258.931 303.339L257.516 304.761L256.053 306.123L254.543 307.425L252.99 308.666L251.394 309.843L249.758 310.956L248.082 312.005L246.37 312.988L244.623 313.906L242.843 314.758L241.033 315.544L239.194 316.264L237.329 316.918L235.441 317.508L233.53 318.033L231.6 318.493L229.653 318.891L227.691 319.226L225.715 319.499L223.728 319.712L221.732 319.866L219.729 319.961L217.72 320L215.708 319.983L213.695 319.913L211.682 319.791L209.671 319.618L207.663 319.396L205.66 319.128L203.664 318.814L201.675 318.457L199.696 318.059L197.727 317.621L195.769 317.145L193.824 316.634L191.893 316.089L189.975 315.511L188.072 314.902L186.185 314.265L184.315 313.599L182.461 312.907L180.624 312.189L178.806 311.448L177.005 310.683L175.223 309.897L173.459 309.09L171.715 308.263L169.99 307.417L168.284 306.554L166.598 305.674L164.932 304.778L163.285 303.867L161.659 302.942L160.052 302.004L158.466 301.053L156.899 300.09L155.352 299.116L153.825 298.131L152.318 297.135L150.831 296.13L149.364 295.115L147.916 294.091L146.488 293.059L145.08 292.018L143.691 290.969L142.322 289.912L140.972 288.847L139.642 287.775L138.331 286.695L137.04 285.608L135.768 284.513L134.515 283.412L133.282 282.302L132.068 281.186L130.874 280.063L129.699 278.932L128.544 277.794L127.408 276.649L126.293 275.497L125.197 274.339L124.121 273.173L123.064 272L122.028 270.82L121.012 269.634L120.016 268.441L119.04 267.242L118.085 266.036L117.149 264.825L116.234 263.608L115.339 262.386L114.465 261.159L113.61 259.926L112.776 258.69L111.962 257.45L111.167 256.206L110.392 254.96L109.637 253.711L108.901 252.46L108.184 251.208L107.486 249.955L106.805 248.702L106.143 247.45L105.498 246.199L104.87 244.949L104.259 243.703L103.663 242.459L103.083 241.22L102.517 239.985L101.964 238.756L101.423 237.535L100.893 236.321L100.373 235.117L99.8608 233.923L99.3553 232.741L98.8547 231.572L98.3572 230.416L97.861 229.276L97.3643 228.152L96.8649 227.044L96.3611 225.955L95.8507 224.884L95.3316 223.833L94.8019 222.802L94.2594 221.792L93.7021 220.803L93.1279 219.834L92.5349 218.887L91.921 217.962L91.2844 217.058L90.6232 216.174L89.9356 215.312L89.2198 214.47L88.4742 213.647L87.6973 212.843L86.8874 212.058L86.0434 211.29L85.1638 210.537L84.2477 209.8L83.294 209.077L82.3021 208.366L81.2713 207.666L80.201 206.975L79.0911 206.292L77.9414 205.614L76.7519 204.941L75.5229 204.27L74.2549 203.599L72.9483 202.927L71.6041 202.252L70.223 201.57L68.8064 200.882L67.3555 200.183L65.8717 199.474L64.3568 198.751L62.8124 198.012L61.2407 197.257L59.6437 196.482L58.0236 195.687L56.3829 194.869L54.724 194.027L53.0496 193.16L51.3624 192.265L49.6653 191.342L47.9611 190.39L46.2529 189.406L44.5438 188.391L42.8367 187.344L41.135 186.262L39.4418 185.147L37.7602 183.997L36.0936 182.812L34.445 181.592L32.8177 180.336L31.2148 179.045L29.6395 177.719L28.0947 176.358L26.5835 174.962L25.1088 173.532L23.6734 172.069L22.2801 170.573L20.9313 169.046L19.6298 167.487L18.3777 165.899L17.1774 164.283L16.0309 162.639L14.9402 160.969L13.9071 159.275L12.9332 157.558L12.0199 155.82L11.1686 154.062L10.3804 152.286L9.65613 150.493L8.99664 148.686L8.40249 146.866L7.87408 145.034L7.41164 143.193L7.01522 141.345L6.6847 139.49L6.41978 137.632L6.2199 135.77L6.08418 133.908L6.01138 132.046L6 130.187L6.04824 128.33L6.15407 126.478L6.31523 124.631L6.52928 122.791L6.79363 120.957L7.10553 119.132L7.46216 117.315L7.86059 115.507L8.29787 113.707L8.77104 111.917L9.27712 110.136L9.81319 108.363L10.3764 106.599L10.9639 104.843L11.5732 103.094L12.2017 101.353L12.8469 99.6183L13.5069 97.8893L14.1795 96.1654L14.8631 94.446L15.5562 92.7303L16.2575 91.0177L16.9661 89.3075L17.6813 87.5993L18.4028 85.8925L19.1301 84.1869L19.8634 82.4819L20.6026 80.7775L21.3478 79.0732L22.0993 77.3689L22.8574 75.6644L23.6226 73.9598L24.3954 72.255L25.1765 70.5501L25.9667 68.8453L26.7666 67.1409L27.5772 65.4371L28.3994 63.7345L29.2341 62.0334L30.0824 60.3344L30.9452 58.6383L31.8237 56.9458L32.7189 55.2577L33.6318 53.5748L34.5636 51.8982L35.5152 50.2288L36.4877 48.5678L37.4821 46.9162L38.4994 45.2754L39.5404 43.6465L40.606 42.0308L41.6971 40.4296L42.8142 38.8443L43.9582 37.2762L45.1296 35.7267L46.329 34.1971L47.5566 32.689L48.813 31.2035L50.0984 29.7421L51.4129 28.3062L52.7566 26.8969L54.1296 25.5156L55.5317 24.1636L56.9628 22.8419L58.4226 21.5518L59.9107 20.2943L61.4268 19.0705L62.9703 17.8812L64.5407 16.7275L66.1372 15.61L67.7593 14.5295L69.406 13.4867L71.0765 12.4822L72.77 11.5165L74.4854 10.59L76.2219 9.70304L77.9783 8.8559L79.7537 8.04876L81.5469 7.28173L83.3567 6.55484L85.1822 5.86806L87.0221 5.22128L88.8753 4.61432L90.7406 4.04693L92.6169 3.51881L94.5031 3.02961L96.398 2.5789L98.3006 2.16624L100.21 1.7911L102.124 1.45298L104.043 1.15134L105.966 0.885708L107.891 0.655623L109.818 0.460659L111.745 0.300423L113.673 0.174554L115.599 0.0827215L117.525 0.0246272L119.448 0L121.368 0.00859473L123.285 0.0501878L125.198 0.124573L127.105 0.231556L129.007 0.370948L130.903 0.54256L132.793 0.746193L134.675 0.981634L136.549 1.24864L138.415 1.54693L140.271 1.87619L142.118 2.23604L143.954 2.62602L145.78 3.04561L147.594 3.49419L149.396 3.97102L151.185 4.47527L152.961 5.00595L154.724 5.56194L156.472 6.14204L158.206 6.74504L159.925 7.36968L161.628 8.0147L163.316 8.67883L164.988 9.36076L166.644 10.0592L168.284 10.7728L169.908 11.5002L171.515 12.2401L173.107 12.9911L174.682 13.7519L176.241 14.521L177.784 15.2971L179.312 16.0789L180.825 16.8649L182.322 17.6538L183.805 18.4442L185.274 19.2347L186.729 20.024L188.172 20.8109L189.602 21.5939L191.02 22.3719L192.427 23.1435L193.824 23.9075L195.212 24.6628L196.591 25.4083L197.963 26.1428L199.328 26.8652L200.688 27.5746L202.042 28.2701L203.394 28.9507L204.742 29.6157L206.09 30.2643L207.437 30.8958L208.785 31.5096L210.136 32.1053L211.49 32.6823L212.848 33.2404L214.212 33.7792L215.583 34.2986L216.962 34.7985L218.35 35.279L219.749 35.7402L221.159 36.1822L222.582 36.6055L224.018 37.0104L225.469 37.3974L226.936 37.7673L228.419 38.1207L229.919 38.4585L231.437 38.7816L232.974 39.091L234.531 39.3879L236.107 39.6735L237.703 39.9491L239.32 40.2162L240.958 40.4761L242.616 40.7306L244.296 40.9812L245.996 41.2297L247.717 41.4778L249.458 41.7274L251.22 41.9804L253 42.2387L254.799 42.5044L256.615 42.7798L258.447 43.0672L260.294 43.3691L262.155 43.6879L264.026 44.0263L265.906 44.3869L267.794 44.7723L269.685 45.185L271.579 45.6277L273.471 46.1029L275.36 46.6129L277.241 47.1602L279.112 47.7469L280.97 48.3752L282.811 49.0469L284.631 49.764L286.428 50.528L288.198 51.3404L289.936 52.2025L291.641 53.1153L293.307 54.0797L294.933 55.0964L296.514 56.1657L298.046 57.288L299.528 58.4632L300.956 59.691L302.327 60.971L303.638 62.3025L304.886 63.6847L306.07 65.1164L307.186 66.5965L308.234 68.1235L309.21 69.6958L310.114 71.3116L310.943 72.9691L311.698 74.6661L312.375 76.4006L312.976 78.1702L313.499 79.9726L313.943 81.8053L314.31 83.6656L314.598 85.551L314.809 87.4587L314.942 89.3861L315 91.3304L314.983 93.2889L314.891 95.2587L314.728 97.2372L314.494 99.2216L314.191 101.209L313.823 103.197L313.39 105.184L312.895 107.165L312.342 109.14L311.732 111.106L311.07 113.06L310.357 115.001L309.597 116.926L308.794 118.834L307.95 120.723L307.07 122.591L306.156 124.437L305.212 126.26L304.242 128.058L303.25 129.831L302.238 131.577L301.21 133.296L300.17 134.988L299.122 136.652L298.068 138.287L297.011 139.895L295.956 141.474L294.905 143.025L293.861 144.548L292.827 146.045L291.805 147.514L290.799 148.958L289.81 150.377L288.841 151.771L287.894 153.143L286.97 154.492L286.072 155.82Z" fill="#E6E6E6"/>
<g clip-path="url(#clip0_97_710)">
<path d="M75.6539 89.9606C75.6539 91.0945 75.9523 92.2284 76.5486 93.2618C77.741 95.3286 79.8772 96.563 82.2627 96.563H116.954C119.339 96.563 121.476 95.3286 122.668 93.2618C123.264 92.2284 123.563 91.0945 123.563 89.9606C123.563 88.8267 123.264 87.6928 122.668 86.6594L105.323 56.5959C104.13 54.5291 101.994 53.2947 99.6083 53.2947C97.2234 53.2947 95.0872 54.5291 93.8942 56.5959L76.5486 86.6594C75.9523 87.6928 75.6539 88.8267 75.6539 89.9606H75.6539Z" fill="white"/>
<path d="M138.578 114.604C138.578 115.244 138.746 115.884 139.082 116.467C139.755 117.633 140.96 118.329 142.306 118.329H161.876C163.222 118.329 164.427 117.633 165.1 116.467C165.436 115.884 165.604 115.244 165.604 114.604C165.604 113.965 165.436 113.325 165.1 112.742L155.314 95.7825C154.642 94.6165 153.437 93.9202 152.091 93.9202C150.746 93.9202 149.54 94.6165 148.867 95.7825L139.082 112.742C138.746 113.325 138.578 113.965 138.578 114.604Z" fill="white"/>
<path d="M11.9528 114.104C11.9528 114.743 12.1211 115.383 12.4574 115.966C13.1302 117.132 14.3352 117.828 15.681 117.828H35.2512C36.5969 117.828 37.802 117.132 38.4747 115.966C38.8111 115.383 38.9794 114.743 38.9794 114.104C38.9794 113.464 38.8111 112.824 38.4747 112.241L28.6896 95.2817C28.0169 94.1158 26.8118 93.4194 25.4661 93.4194C24.1207 93.4194 22.9156 94.1158 22.2426 95.2817L12.4574 112.241C12.1211 112.824 11.9528 113.464 11.9528 114.104Z" fill="#3F3D56"/>
<path d="M245.183 96.0738C245.183 96.704 245.346 97.3342 245.673 97.9102C246.352 99.1092 247.676 99.7983 249.054 99.7983H257.328C258.705 99.7983 260.029 99.1092 260.709 97.9102C261.035 97.3342 261.199 96.704 261.199 96.0738C261.199 95.4341 261.03 94.7944 260.694 94.2115L256.498 82.9058C255.804 81.7029 254.539 80.8846 253.151 80.8989C251.821 80.9125 250.633 81.6066 249.967 82.7609L245.687 94.2115C245.351 94.7944 245.183 95.4341 245.183 96.0738V96.0738Z" fill="#3F3D56"/>
<path d="M161.376 118.329H141.805C140.321 118.329 138.977 117.825 138.211 116.98C137.796 116.522 137.577 115.996 137.577 115.459C137.577 114.922 137.796 114.396 138.211 113.938L147.997 103.15C148.763 102.306 150.106 101.802 151.59 101.802C153.075 101.802 154.419 102.306 155.185 103.15L164.97 113.938C165.385 114.396 165.604 114.922 165.604 115.459C165.604 115.996 165.385 116.522 164.97 116.98C164.204 117.825 162.86 118.329 161.376 118.329V118.329ZM151.59 102.803C150.384 102.803 149.317 103.185 148.738 103.824C147.214 108.407 144.014 112.038 138.952 114.611C138.704 114.885 138.578 115.171 138.578 115.459C138.578 115.747 138.704 116.033 138.952 116.307C139.532 116.946 140.598 117.327 141.805 117.327H161.376C162.583 117.327 163.649 116.946 164.229 116.307C164.477 116.033 164.603 115.747 164.603 115.459C164.603 115.171 164.477 114.885 164.228 114.611L154.443 103.823C153.864 103.185 152.797 102.803 151.59 102.803V102.803Z" fill="#3F3D56"/>
<path d="M104.623 96.6262C103.158 96.6262 101.705 96.1875 100.431 95.3214L71.7287 75.8229C69.4899 74.3022 68.2708 71.7818 68.4671 69.0812C68.5637 67.7581 69.0004 66.4898 69.7312 65.413C70.4611 64.337 71.4778 63.4622 72.6713 62.884L103.897 47.7603C106.333 46.5794 109.125 46.784 111.362 48.3052C113.602 49.8263 114.821 52.3466 114.624 55.0468L112.1 89.6695C112.004 90.9929 111.567 92.2613 110.837 93.3373C110.106 94.4141 109.089 95.2889 107.896 95.8663C106.847 96.3747 105.731 96.6262 104.623 96.6262V96.6262ZM107.168 48.779C106.322 48.779 105.471 48.9706 104.67 49.3585C97.0869 56.9824 89.2209 64.3479 73.4446 64.4818C72.531 64.9248 71.7542 65.5915 71.1989 66.41C70.6435 67.2293 70.3108 68.1977 70.2371 69.2104C70.0868 71.2707 71.0169 73.1937 72.725 74.3542L101.427 93.8527C103.135 95.0127 105.263 95.1679 107.123 94.2684C108.036 93.8258 108.813 93.1591 109.369 92.3398C109.924 91.5214 110.256 90.5534 110.33 89.5403L112.854 54.9177C113.005 52.8573 112.074 50.9347 110.366 49.7738C109.394 49.1136 108.285 48.779 107.168 48.779V48.779Z" fill="#3F3D56"/>
<path d="M265.703 117.327H0V118.329H265.703V117.327Z" fill="#3F3D56"/>
<path d="M56.286 79.6475C44.1831 83.122 38.8106 93.9707 38.7565 94.0824L39.6575 94.519C39.7095 94.4115 44.8546 84.0448 56.4106 80.6516L55.5216 85.0546C57.4035 82.846 60.6272 80.5453 63.2836 79.0828C60.3169 78.4584 56.5635 77.1966 54.1205 75.6318L56.286 79.6475V79.6475Z" fill="#172864"/>
<path d="M122.728 69.4402L122.468 70.4076C122.584 70.4385 133.725 73.5508 139.223 84.2727L134.734 84.2249C137.255 85.6603 140.118 88.3973 142.052 90.7339C142.109 87.7008 142.643 83.7748 143.721 81.0801L140.185 83.9617C134.504 72.7179 122.848 69.4722 122.728 69.4402V69.4402Z" fill="#172864"/>
<path d="M188.605 82.4433C185.951 80.9769 182.731 78.6705 180.853 76.4585L181.748 80.9325C169.163 80.7065 160.848 89.507 160.763 89.5978L161.497 90.2791C161.578 90.1918 169.527 81.7926 181.574 81.9296L179.435 85.8787C181.881 84.3184 185.637 83.0633 188.605 82.4433V82.4433Z" fill="#172864"/>
<path d="M195.682 264.461L191.516 264.426L189.672 247.974L195.82 248.026L195.682 264.461Z" fill="#A0616A"/>
<path d="M197.563 272.894L196.788 262.541L195.7 262.468L191.263 262.165L189.836 262.069L189.809 265.049L183.156 269.566C182.653 269.91 182.344 270.482 182.34 271.09C182.331 271.938 182.897 272.663 183.672 272.894C183.836 272.944 184.008 272.972 184.189 272.972L192.469 273.04L192.541 272.894L193.919 270.101L194.422 272.894L194.449 273.058L197.577 273.085L197.563 272.894V272.894Z" fill="#2F2E41"/>
<path d="M255.432 261.86L251.396 262.891L245.412 247.456L251.369 245.934L255.432 261.86Z" fill="#A0616A"/>
<path d="M259.405 269.532L256.012 259.72L254.941 259.928L250.574 260.769L249.17 261.042L249.904 263.929L244.626 269.997C244.227 270.459 244.075 271.091 244.226 271.679C244.434 272.501 245.167 273.058 245.975 273.084C246.146 273.09 246.319 273.072 246.494 273.026L254.517 270.975L254.55 270.816L255.168 267.763L256.368 270.335L256.436 270.486L259.466 269.712L259.405 269.532H259.405Z" fill="#2F2E41"/>
<path d="M200.266 126.641L224.854 130.927V134.76C224.854 134.76 226.543 134.529 226.543 135.656V137.635L227.91 139.003C227.91 139.003 241.183 154.814 238.931 173.596L240.808 189.749L242.685 193.13L241.934 196.886C241.934 196.886 244.562 199.516 244.562 199.891C244.562 200.267 243.811 203.648 243.811 203.648C243.811 203.648 247.565 205.15 247.19 205.526C246.814 205.902 247.565 208.156 247.565 208.156C247.565 208.156 256.95 235.578 254.322 254.36L247.94 256.238L226.168 205.526L213.404 169.089L202.643 194.632V199.572L203.019 200.643V201.394L201.893 204.023L202.643 205.526L201.142 210.034V215.668C201.142 215.668 201.392 245.72 196.136 255.487H189.755L183.373 197.638L184.499 191.627L184.874 188.622L186.751 187.871L184.874 185.617L191.256 145.799L200.266 126.641L200.266 126.641Z" fill="#172864"/>
<path d="M206.257 81.1619H219.555L221.258 86.8087L226.531 88.898C230.186 90.3463 232.496 93.9826 232.254 97.909L232.174 99.219L233.542 107.235C233.542 107.235 231.918 110.301 231.108 110.958C230.297 111.615 227.138 125.316 227.138 125.316L233.171 146.375L225.041 141.667L197.636 131.351L197.638 125.89L199.168 121.912L200.118 120.962L196.003 113.422L192.47 91.3262L203.133 87.6213L206.257 81.1619V81.1619Z" fill="white"/>
<path d="M166.524 102.767L168.833 85.5389L168.865 85.5452C168.588 84.7542 168.601 83.8599 168.975 83.0364C169.744 81.3425 171.74 80.5935 173.432 81.3632C175.125 82.1331 175.874 84.1302 175.105 85.8241C174.752 86.6 174.141 87.1745 173.421 87.4987L171.746 100.108L193.802 91.7045C193.802 91.7045 202.405 96.3488 199.163 97.5656C197.053 98.3574 174.09 107.019 169.891 106.816C167.801 106.715 166.246 104.843 166.524 102.767L166.524 102.767Z" fill="#A0616A"/>
<path d="M199.042 93.4514L201.93 97.6015C197.188 101.015 174.626 109.192 174.54 108.169C174.454 107.146 173.331 108.075 173.216 108.47C173.101 108.865 171.818 108.274 171.826 108.738C171.833 109.203 170.756 108.916 170.217 108.99C170.217 108.99 166.038 107.568 165.408 105.2C164.778 102.833 165.543 100.149 165.543 100.149L164.603 97.6487L175.039 95.7018L173.106 98.852L194.255 90.5889L199.042 93.4514V93.4514Z" fill="white"/>
<path d="M245.798 117.123L255.144 102.483L255.115 102.467C256.016 101.937 256.675 100.993 256.77 99.8027C256.876 98.4723 256.145 97.1716 254.954 96.572C252.995 95.5864 250.738 96.6515 250.173 98.6522C249.942 99.4719 250.038 100.305 250.379 101.017L243.527 111.722L234.35 95.1185C232.651 92.0451 229.33 90.157 225.832 90.4452C224.488 90.5558 223.631 90.991 224.241 92.0822C225.341 94.0486 237.283 115.484 240.619 118.039C242.279 119.312 244.672 118.887 245.798 117.123Z" fill="#A0616A"/>
<path d="M226.986 89.0195L222.106 90.3226C223.524 95.9895 235.473 116.797 236.198 116.071C236.924 115.346 237.182 116.78 237.015 117.155C236.848 117.531 238.208 117.908 237.903 118.258C237.598 118.607 238.604 119.084 238.968 119.488C238.968 119.488 243.074 121.101 245.082 119.701C247.089 118.3 248.236 115.758 248.236 115.758L250.565 114.456L243.855 106.233L243.299 109.885L234.606 93.84C233.268 91.3704 230.864 89.6584 228.094 89.2022L226.986 89.0195V89.0195Z" fill="white"/>
<path d="M209.822 78.6409C215.59 78.6409 220.266 73.9619 220.266 68.1902C220.266 62.4184 215.59 57.7395 209.822 57.7395C204.054 57.7395 199.378 62.4184 199.378 68.1902C199.378 73.9619 204.054 78.6409 209.822 78.6409Z" fill="#A0616A"/>
<path d="M196.116 63.6575C196.006 58.5436 198.228 57.2437 201.475 57.1624C208.181 54.6172 209.531 55.6133 211.493 56.205L212.248 56.1329C214.565 55.9115 216.787 56.3826 218.707 57.3785C222.759 59.4752 225.068 63.8575 224.847 68.416C224.693 71.5585 223.427 74.9743 224.937 77.718C226.199 80.0089 227.532 82.2708 224.932 82.5192L218.125 83.1697C217.636 82.3754 217.266 81.5598 216.857 80.5443C216.552 81.3718 216.415 82.3443 216.407 83.3339C213.92 84.2294 211.298 84.413 208.579 84.082C208.21 83.4471 207.894 82.7512 208.031 82.0251C207.794 82.741 207.524 83.4502 207.404 84.1943C205.822 82.8906 204.369 83.0487 203.041 84.6113C200.465 81.9104 200.877 76.4625 204.428 75.5023C207.431 74.69 203.848 66.1159 200.781 65.5898C200.761 65.5864 199.575 68.5998 199.553 68.5379C199.22 67.6153 199.475 67.161 199.066 66.1454C198.811 66.8433 198.67 67.642 198.631 68.4671C197.914 68.2202 197.197 67.8977 196.483 67.4962C195.75 66.2096 195.558 64.9292 196.116 63.6575V63.6575Z" fill="#2F2E41"/>
<path d="M263.844 265.319C264.878 265.384 265.449 264.098 264.667 263.349L264.589 263.04C264.599 263.015 264.61 262.99 264.62 262.965C265.666 260.47 269.209 260.488 270.246 262.986C271.166 265.204 272.338 267.426 272.626 269.77C272.756 270.806 272.698 271.86 272.468 272.876C274.624 268.163 275.759 263.016 275.759 257.841C275.759 256.54 275.688 255.24 275.542 253.943C275.423 252.882 275.258 251.827 275.044 250.782C273.89 245.134 271.392 239.755 267.787 235.262C266.055 234.314 264.61 232.832 263.737 231.057C263.423 230.416 263.178 229.727 263.061 229.025C263.258 229.051 263.805 226.046 263.656 225.861C263.931 225.444 264.423 225.237 264.723 224.83C266.215 222.805 268.272 223.158 269.345 225.91C271.639 227.068 271.661 228.989 270.254 230.837C269.358 232.012 269.235 233.602 268.45 234.861C268.531 234.964 268.615 235.064 268.696 235.168C270.178 237.07 271.459 239.114 272.54 241.262C272.235 238.875 272.685 236 273.454 234.146C274.329 232.034 275.969 230.255 277.413 228.429C279.148 226.236 282.705 227.193 283.011 229.973C283.014 230 283.017 230.027 283.019 230.054C282.805 230.175 282.595 230.304 282.389 230.439C281.219 231.214 281.623 233.031 283.011 233.245L283.042 233.25C282.964 234.023 282.832 234.789 282.638 235.543C284.491 242.713 280.491 245.324 274.779 245.442C274.653 245.506 274.53 245.571 274.404 245.632C274.983 247.263 275.445 248.935 275.788 250.63C276.095 252.128 276.308 253.642 276.428 255.162C276.577 257.08 276.564 259.008 276.402 260.923L276.412 260.855C276.822 258.746 277.967 256.776 279.628 255.411C282.104 253.377 285.601 252.627 288.271 250.992C289.556 250.204 291.204 251.222 290.979 252.713L290.968 252.785C290.571 252.946 290.183 253.134 289.808 253.344C289.593 253.465 289.383 253.594 289.178 253.73C288.007 254.505 288.412 256.321 289.799 256.535L289.831 256.54C289.853 256.543 289.873 256.547 289.895 256.55C289.213 258.17 288.263 259.675 287.073 260.972C285.915 267.231 280.939 267.825 275.617 266.002H275.613C275.032 268.538 274.181 271.016 273.089 273.377H264.07C264.037 273.277 264.008 273.173 263.979 273.073C264.813 273.125 265.654 273.076 266.475 272.924C265.806 272.103 265.137 271.275 264.467 270.453C264.451 270.437 264.438 270.421 264.425 270.404C264.086 269.984 263.743 269.567 263.404 269.146L263.404 269.146C263.382 267.855 263.537 266.568 263.843 265.319L263.844 265.319V265.319Z" fill="#F2F2F2"/>
<path d="M162.969 273.404C162.969 273.735 163.234 274 163.564 274H290.334C290.665 274 290.93 273.735 290.93 273.404C290.93 273.073 290.665 272.808 290.334 272.808H163.564C163.234 272.808 162.969 273.073 162.969 273.404Z" fill="#CCCCCC"/>
<path d="M99.0386 123.838C102.356 123.838 105.045 121.147 105.045 117.828C105.045 114.509 102.356 111.818 99.0386 111.818C95.7217 111.818 93.0327 114.509 93.0327 117.828C93.0327 121.147 95.7217 123.838 99.0386 123.838Z" fill="#CCCCCC"/>
<path d="M151.59 124.84C154.907 124.84 157.596 122.149 157.596 118.83C157.596 115.511 154.907 112.82 151.59 112.82C148.273 112.82 145.584 115.511 145.584 118.83C145.584 122.149 148.273 124.84 151.59 124.84Z" fill="#CCCCCC"/>
<path d="M253.691 127.344C257.008 127.344 259.697 124.653 259.697 121.334C259.697 118.015 257.008 115.324 253.691 115.324C250.374 115.324 247.685 118.015 247.685 121.334C247.685 124.653 250.374 127.344 253.691 127.344Z" fill="#CCCCCC"/>
<path d="M25.466 123.838C28.783 123.838 31.4719 121.147 31.4719 117.828C31.4719 114.509 28.783 111.818 25.466 111.818C22.149 111.818 19.4601 114.509 19.4601 117.828C19.4601 121.147 22.149 123.838 25.466 123.838Z" fill="#CCCCCC"/>
<path d="M27.6651 119.439C27.4241 119.439 27.183 119.435 26.9419 119.432C26.9499 119.386 26.9587 119.34 26.9655 119.295C27.076 118.558 27.1274 117.811 27.1219 117.066C27.1167 116.354 27.0834 115.588 26.8491 114.91C26.6779 114.414 26.2067 114.257 25.7463 114.461C24.9358 114.82 24.2377 115.535 23.5975 115.992C23.268 116.228 23.1102 116.647 23.3281 117.02C23.5186 117.346 24.0236 117.527 24.3553 117.29C24.8045 116.969 25.1842 116.627 25.5897 116.32C25.6036 116.506 25.6136 116.691 25.6177 116.877C25.632 117.515 25.603 118.158 25.53 118.793C25.5264 118.823 25.5078 118.953 25.51 118.942C25.5043 118.98 25.4989 119.017 25.4924 119.055C25.4715 119.177 25.4472 119.298 25.414 119.417L25.4106 119.428C25.0566 119.433 24.7027 119.444 24.3492 119.471C23.9779 119.499 23.658 119.734 23.6119 120.122C23.5687 120.485 23.7815 120.85 24.1496 120.946C24.7692 121.109 25.477 121.243 26.0699 120.926C26.6016 120.929 27.1335 120.941 27.6651 120.941C28.0708 120.942 28.4158 120.596 28.4158 120.19C28.4158 119.782 28.0722 119.44 27.6651 119.439H27.6651Z" fill="white"/>
<path d="M99.7159 115.465L99.712 115.462C99.7219 115.471 99.7296 115.478 99.7356 115.482C99.7289 115.476 99.7224 115.47 99.7159 115.465Z" fill="white"/>
<path d="M101.372 119.581C100.736 119.583 100.101 119.63 99.4654 119.641C99.3776 119.642 99.2974 119.641 99.2141 119.642C99.5272 119.393 99.8418 119.146 100.143 118.882C100.936 118.188 101.793 117.226 101.671 116.089C101.549 114.946 100.508 113.736 99.2748 113.856C98.291 113.952 97.4732 114.724 97.1925 115.657C97.0362 116.177 97.0907 116.753 97.4273 117.189C97.817 117.693 98.4632 117.849 99.0751 117.819C99.0281 117.86 98.984 117.904 98.9364 117.945C98.5571 118.266 98.1593 118.565 97.7762 118.881C97.4487 119.152 97.1111 119.447 96.8981 119.821C96.6566 120.246 96.8776 120.79 97.3468 120.925C98.6554 121.3 100.035 121.088 101.372 121.084C101.777 121.082 102.122 120.739 102.122 120.332C102.122 119.926 101.779 119.58 101.372 119.581V119.581ZM99.8497 117.042L99.8496 117.041C99.8674 117.016 99.8663 117.02 99.8497 117.042ZM99.5716 115.379C99.5338 115.359 99.4998 115.338 99.5716 115.379V115.379ZM99.6173 115.396C99.6159 115.399 99.6006 115.393 99.5831 115.384C99.6023 115.39 99.6177 115.395 99.6173 115.396ZM98.6016 116.248L98.6023 116.253L98.5994 116.246L98.6016 116.248H98.6016ZM98.5914 116.241L98.5959 116.254C98.5806 116.239 98.5671 116.225 98.5664 116.225C98.5777 116.226 98.5835 116.235 98.5914 116.241ZM98.5983 116.261L98.599 116.263C98.532 116.23 98.5614 116.241 98.5983 116.261ZM98.6019 116.272L98.6023 116.273L98.6019 116.272ZM98.7918 116.318C98.7856 116.318 98.7793 116.317 98.773 116.317C98.7389 116.307 98.7023 116.299 98.6675 116.292C98.6781 116.298 98.6895 116.304 98.695 116.313C98.6908 116.306 98.6736 116.297 98.6557 116.289L98.6537 116.288C98.6397 116.285 98.6393 116.284 98.6309 116.282C98.6453 116.292 98.6553 116.303 98.6522 116.31C98.6519 116.311 98.6369 116.296 98.6201 116.279C98.6331 116.317 98.6279 116.349 98.6166 116.286C98.6166 116.283 98.6167 116.281 98.6166 116.278L98.613 116.276L98.6125 116.275L98.6123 116.271L98.6117 116.27L98.6123 116.27L98.6123 116.27L98.61 116.269L98.609 116.268L98.6089 116.267L98.6123 116.27L98.6104 116.253C98.6138 116.258 98.6141 116.264 98.6164 116.269C98.6158 116.237 98.614 116.196 98.6126 116.168C98.6168 116.147 98.6212 116.126 98.6266 116.105C98.6345 116.076 98.6681 115.987 98.6785 115.955C98.6997 115.916 98.7202 115.876 98.7433 115.837C98.7592 115.81 98.8126 115.736 98.8332 115.705C98.8664 115.668 98.9112 115.617 98.9286 115.6C98.9589 115.57 98.9909 115.541 99.0225 115.512C99.0493 115.488 99.1299 115.395 99.046 115.49C98.969 115.577 99.0348 115.499 99.0742 115.476C99.1104 115.454 99.1457 115.431 99.1829 115.411L99.1966 115.405C99.1735 115.41 99.169 115.405 99.2328 115.387L99.245 115.384C99.2599 115.377 99.2758 115.37 99.2794 115.363C99.2757 115.37 99.2656 115.375 99.2572 115.38L99.3334 115.359C99.3255 115.357 99.3163 115.359 99.3102 115.355C99.312 115.356 99.3251 115.357 99.3376 115.358L99.3523 115.354C99.451 115.326 99.4215 115.349 99.3763 115.359C99.4076 115.36 99.4404 115.36 99.47 115.359C99.4198 115.35 99.3734 115.323 99.4709 115.352L99.4932 115.358C99.5095 115.358 99.5231 115.357 99.5251 115.355C99.5185 115.36 99.5067 115.359 99.4961 115.359C99.5199 115.366 99.5535 115.375 99.5803 115.383L99.5844 115.386C99.6212 115.407 99.6576 115.428 99.694 115.45C99.7026 115.455 99.7055 115.458 99.712 115.462C99.704 115.455 99.6972 115.449 99.6872 115.439C99.696 115.448 99.7064 115.456 99.7159 115.465C99.7502 115.488 99.7542 115.496 99.7359 115.483C99.7622 115.505 99.7884 115.528 99.8128 115.552C99.8562 115.595 99.8951 115.641 99.9367 115.685C99.9433 115.692 99.9463 115.695 99.9506 115.699L99.9589 115.713C100.019 115.807 100.07 115.905 100.127 116C100.13 116.006 100.132 116.012 100.134 116.018C100.146 116.063 100.158 116.11 100.172 116.154C100.174 116.162 100.176 116.164 100.178 116.17C100.179 116.216 100.183 116.263 100.182 116.31L100.18 116.345C100.177 116.37 100.172 116.401 100.169 116.414C100.159 116.457 100.147 116.5 100.134 116.542C100.129 116.559 100.123 116.575 100.117 116.592C100.03 116.743 99.9443 116.89 99.849 117.036C99.831 116.658 99.4974 116.293 99.1017 116.316C98.9979 116.322 98.8956 116.321 98.7918 116.318L98.7918 116.318Z" fill="white"/>
<path d="M98.6164 116.269L98.6164 116.271L98.6162 116.271L98.6164 116.271L98.6165 116.272L98.6138 116.271L98.6123 116.27V116.271L98.6165 116.275L98.6166 116.277L98.6197 116.278L98.62 116.279L98.6199 116.278L98.6307 116.282L98.618 116.273L98.6174 116.272C98.6285 116.277 98.6401 116.282 98.6552 116.289L98.6667 116.291C98.6497 116.281 98.632 116.274 98.6174 116.272L98.6164 116.269H98.6164Z" fill="white"/>
<path d="M99.3758 115.359C99.3602 115.359 99.3485 115.358 99.3376 115.358L99.3335 115.359C99.3482 115.361 99.361 115.362 99.3758 115.359Z" fill="white"/>
<path d="M99.4958 115.359L99.4928 115.358L99.47 115.359C99.4799 115.361 99.4866 115.36 99.4958 115.359V115.359Z" fill="white"/>
<path d="M98.6139 116.271L98.6164 116.271L98.6123 116.27L98.6139 116.271Z" fill="white"/>
<path d="M99.2564 115.38L99.2444 115.383C99.226 115.392 99.2109 115.399 99.1967 115.405C99.2136 115.402 99.237 115.393 99.2564 115.38Z" fill="white"/>
<path d="M154.226 118.903C154.199 118.87 154.165 118.843 154.136 118.811C154.237 118.71 154.327 118.596 154.393 118.453C154.764 117.65 154.333 116.783 153.789 116.177C152.772 115.046 150.819 114.779 149.533 115.574C149.199 115.781 149.04 116.255 149.263 116.602C149.479 116.937 149.933 117.093 150.29 116.872C150.346 116.838 150.403 116.807 150.459 116.775C150.476 116.766 150.484 116.76 150.493 116.754C150.501 116.752 150.506 116.751 150.518 116.746C150.643 116.703 150.769 116.671 150.898 116.642C150.914 116.638 150.924 116.635 150.932 116.633C150.941 116.633 150.948 116.633 150.962 116.632C151.029 116.629 151.095 116.623 151.162 116.622C151.283 116.62 151.401 116.629 151.52 116.639C151.547 116.643 151.575 116.648 151.602 116.654C151.668 116.667 151.734 116.682 151.8 116.7C151.905 116.728 152.01 116.764 152.112 116.804C152.141 116.818 152.198 116.844 152.214 116.852C152.272 116.882 152.33 116.914 152.386 116.949C152.441 116.983 152.493 117.023 152.549 117.057C152.407 116.97 152.531 117.045 152.566 117.076C152.648 117.151 152.721 117.233 152.793 117.318C152.802 117.33 152.812 117.344 152.822 117.358C152.859 117.412 152.893 117.466 152.925 117.522C152.931 117.533 152.961 117.589 152.98 117.625C152.991 117.654 153.011 117.705 153.015 117.716C153.02 117.735 153.024 117.752 153.027 117.767C153.007 117.775 152.987 117.783 152.973 117.787C152.933 117.797 152.892 117.804 152.852 117.811C152.833 117.814 152.799 117.818 152.763 117.82C152.647 117.828 152.532 117.83 152.416 117.83C152.041 117.831 151.728 118.116 151.678 118.482C151.626 118.869 151.861 119.175 152.216 119.306C152.217 119.306 152.256 119.321 152.287 119.333C152.317 119.346 152.365 119.367 152.375 119.372C152.472 119.419 152.566 119.469 152.658 119.524C152.713 119.558 152.766 119.594 152.82 119.629L152.843 119.644C152.916 119.702 152.986 119.764 153.05 119.832C153.087 119.871 153.158 119.999 153.081 119.86C153.098 119.891 153.12 119.924 153.141 119.954C153.146 119.961 153.148 119.962 153.152 119.967L153.152 119.969C153.153 119.972 153.157 119.986 153.162 120.001C153.15 120.024 153.137 120.047 153.123 120.068C153.177 119.975 153.127 120.062 153.086 120.105C152.993 120.201 152.945 120.236 152.845 120.297C152.796 120.327 152.744 120.355 152.692 120.38C152.678 120.384 152.62 120.406 152.598 120.412C152.552 120.426 152.505 120.436 152.458 120.446C152.44 120.448 152.4 120.453 152.371 120.454C152.312 120.456 152.254 120.453 152.195 120.452C152.179 120.452 152.168 120.452 152.16 120.452L152.147 120.448C152.03 120.419 151.913 120.396 151.798 120.359C151.739 120.34 151.682 120.318 151.624 120.298C151.599 120.288 151.589 120.285 151.582 120.283C151.586 120.284 151.586 120.283 151.563 120.272C151.322 120.161 151.089 120.035 150.858 119.904C150.516 119.711 150.022 119.811 149.831 120.174C149.643 120.529 149.735 120.996 150.1 121.202C150.752 121.569 151.435 121.909 152.195 121.954C153.011 122.003 153.828 121.597 154.323 120.956C154.821 120.311 154.718 119.513 154.226 118.903V118.903ZM153.05 117.792C153.061 117.776 153.061 117.774 153.066 117.764C153.078 117.75 153.081 117.747 153.05 117.792ZM153.076 117.749L153.081 117.74C153.087 117.741 153.102 117.736 153.144 117.71C153.121 117.724 153.098 117.736 153.076 117.749V117.749ZM153.174 120.046C153.177 120.058 153.179 120.068 153.177 120.069L153.174 120.046Z" fill="white"/>
<path d="M256.689 120.941C256.594 120.647 256.316 120.406 256.005 120.388C255.967 120.025 255.938 119.662 255.935 119.295C255.932 118.902 255.592 118.526 255.185 118.544C254.781 118.562 254.431 118.874 254.434 119.295C254.437 119.698 254.468 120.096 254.512 120.49C254.226 120.473 253.94 120.452 253.654 120.463C253.311 120.475 252.97 120.53 252.628 120.553C252.579 120.557 252.53 120.553 252.482 120.554C252.529 120.412 252.577 120.27 252.634 120.131C252.643 120.11 252.657 120.081 252.668 120.057C252.689 120.011 252.712 119.966 252.735 119.922C252.785 119.826 252.838 119.732 252.897 119.642C252.917 119.612 253.034 119.472 252.913 119.611C252.949 119.569 252.983 119.527 253.021 119.488C253.048 119.459 253.078 119.433 253.107 119.406C253.118 119.398 253.133 119.388 253.152 119.376C253.484 119.167 253.646 118.697 253.421 118.348C253.207 118.015 252.75 117.855 252.394 118.079C251.421 118.69 251.091 119.904 250.789 120.942C250.696 121.263 250.851 121.623 251.134 121.791C251.891 122.24 252.777 122.01 253.599 121.968C253.971 121.948 254.346 121.979 254.721 121.998C254.83 122.726 254.929 123.453 254.931 124.193C254.932 124.586 255.275 124.962 255.681 124.944C256.087 124.926 256.433 124.614 256.432 124.193C256.43 123.396 256.319 122.62 256.204 121.848C256.555 121.708 256.814 121.328 256.689 120.941V120.941ZM253.103 119.409C253.078 119.431 253.078 119.428 253.103 119.409V119.409Z" fill="white"/>
</g>
<defs>
<clipPath id="clip0_97_710">
<rect width="291" height="227" fill="white" transform="translate(0 47)"/>
</clipPath>
</defs>
</svg>
