<svg width="412" height="302" viewBox="0 0 412 302" fill="none" xmlns="http://www.w3.org/2000/svg">
<path fill-rule="evenodd" clip-rule="evenodd" d="M409.571 150.006V150.006L410.153 152.583L410.658 155.171L411.084 157.769L411.43 160.375L411.696 162.988L411.88 165.605L411.981 168.226L412 170.849L411.935 173.471L411.786 176.091L411.552 178.708L411.234 181.32L410.831 183.924L410.344 186.519L409.773 189.104L409.117 191.677L408.378 194.235L407.556 196.779L406.652 199.304L405.667 201.811L404.601 204.298L403.457 206.762L402.234 209.204L400.935 211.62L399.561 214.011L398.114 216.373L396.594 218.708L395.004 221.012L393.347 223.286L391.622 225.527L389.834 227.736L387.982 229.911L386.071 232.052L384.101 234.157L382.075 236.226L379.995 238.258L377.863 240.254L375.682 242.212L373.453 244.132L371.178 246.013L368.861 247.857L366.502 249.661L364.104 251.426L361.67 253.153L359.2 254.84L356.697 256.488L354.164 258.096L351.601 259.666L349.01 261.197L346.395 262.689L343.756 264.143L341.096 265.558L338.416 266.936L335.718 268.276L333.003 269.58L330.274 270.847L327.533 272.078L324.779 273.274L322.016 274.435L319.245 275.563L316.467 276.657L313.683 277.718L310.895 278.747L308.103 279.745L305.31 280.713L302.516 281.65L299.721 282.559L296.928 283.44L294.137 284.293L291.348 285.119L288.562 285.919L285.781 286.694L283.004 287.444L280.233 288.171L277.467 288.874L274.707 289.555L271.954 290.214L269.207 290.851L266.468 291.468L263.735 292.065L261.009 292.642L258.291 293.2L255.581 293.74L252.877 294.261L250.181 294.765L247.492 295.251L244.811 295.719L242.136 296.171L239.468 296.606L236.807 297.025L234.152 297.427L231.504 297.813L228.861 298.182L226.225 298.536L223.594 298.873L220.968 299.194L218.347 299.498L215.732 299.786L213.121 300.058L210.514 300.313L207.912 300.551L205.314 300.772L202.719 300.976L200.129 301.162L197.542 301.33L194.959 301.48L192.379 301.612L189.803 301.725L187.23 301.819L184.66 301.894L182.094 301.949L179.531 301.985L176.972 302L174.416 301.995L171.865 301.969L169.316 301.922L166.772 301.854L164.232 301.764L161.697 301.652L159.166 301.519L156.64 301.363L154.118 301.185L151.603 300.985L149.093 300.762L146.588 300.516L144.09 300.247L141.599 299.956L139.114 299.641L136.636 299.304L134.166 298.944L131.704 298.56L129.25 298.154L126.804 297.724L124.367 297.271L121.939 296.796L119.521 296.297L117.112 295.775L114.714 295.23L112.326 294.662L109.95 294.071L107.584 293.457L105.23 292.821L102.889 292.161L100.56 291.478L98.2431 290.773L95.94 290.045L93.6506 289.294L91.3752 288.521L89.1144 287.724L86.8686 286.905L84.6381 286.064L82.4236 285.199L80.2254 284.312L78.044 283.403L75.8801 282.471L73.734 281.516L71.6063 280.538L69.4977 279.538L67.4086 278.515L65.3398 277.47L63.2918 276.402L61.2654 275.311L59.2614 274.197L57.2805 273.061L55.3235 271.901L53.3913 270.718L51.4847 269.512L49.6047 268.283L47.7521 267.03L45.9281 265.754L44.1335 264.455L42.3694 263.132L40.6368 261.787L38.9368 260.418L37.2703 259.025L35.6386 257.61L34.0425 256.172L32.4833 254.712L30.962 253.229L29.4796 251.724L28.0372 250.197L26.6358 248.649L25.2764 247.081L23.96 245.491L22.6876 243.882L21.46 242.254L20.2782 240.606L19.143 238.941L18.0553 237.258L17.0157 235.558L16.0249 233.843L15.0838 232.112L14.1927 230.367L13.3523 228.608L12.563 226.837L11.8254 225.055L11.1396 223.261L10.5061 221.458L9.92509 219.646L9.3967 217.827L8.92106 216.001L8.49822 214.169L8.12815 212.333L7.8108 210.493L7.54602 208.651L7.33359 206.808L7.17323 204.964L7.06451 203.121L7.00697 201.28L7 199.442L7.04294 197.608L7.13503 195.779L7.2754 193.956L7.46311 192.141L7.69714 190.334L7.97637 188.536L8.29962 186.748L8.6656 184.972L9.07299 183.207L9.52035 181.456L10.0062 179.718L10.5291 177.995L11.0873 176.286L11.6792 174.594L12.3032 172.918L12.9574 171.26L13.6401 169.619L14.3496 167.996L15.0839 166.391L15.8413 164.805L16.6199 163.239L17.4178 161.691L18.2331 160.163L19.064 158.654L19.9087 157.165L20.7653 155.695L21.632 154.244L22.507 152.812L23.3885 151.4L24.2746 150.006L25.1634 148.63L26.053 147.272L26.9415 145.931L27.8271 144.607L28.7079 143.299L29.5821 142.007L30.4478 140.729L31.3034 139.465L32.1472 138.214L32.9776 136.975L33.793 135.748L34.5921 134.53L35.3735 133.322L36.1359 132.121L36.8782 130.927L37.5995 129.738L38.2989 128.554L38.9755 127.373L39.6287 126.194L40.2581 125.016L40.8632 123.836L41.4439 122.655L42 121.471L42.5316 120.282L43.0388 119.087L43.522 117.886L43.9817 116.676L44.4183 115.457L44.8327 114.228L45.2256 112.988L45.598 111.736L45.951 110.47L46.2858 109.19L46.6036 107.895L46.9058 106.584L47.1939 105.257L47.4695 103.913L47.7341 102.551L47.9895 101.171L48.2374 99.7729L48.4797 98.3557L48.7181 96.9195L48.9546 95.464L49.191 93.9892L49.4293 92.4949L49.6715 90.9813L49.9195 89.4485L50.1754 87.8967L50.4414 86.3263L50.7195 84.7376L51.0118 83.1313L51.3205 81.508L51.6477 79.8684L51.9956 78.2133L52.3662 76.5436L52.7616 74.8604L53.1839 73.1648L53.635 71.4578L54.1169 69.7408L54.6315 68.015L55.1805 66.282L55.7657 64.5431L56.3888 62.7998L57.0512 61.0537L57.7546 59.3065L58.5002 57.5598L59.2893 55.8153L60.123 54.0747L61.0025 52.3398L61.9286 50.6124L62.9021 48.8941L63.9238 47.1868L64.9941 45.4923L66.1136 43.8123L67.2826 42.1485L68.5011 40.5027L69.7695 38.8766L71.0875 37.2717L72.455 35.6897L73.8718 34.1322L75.3375 32.6005L76.8515 31.0963L78.4132 29.6207L80.022 28.1752L81.677 26.7608L83.3774 25.3789L85.1222 24.0303L86.9103 22.7161L88.7406 21.4372L90.612 20.1944L92.5231 18.9883L94.4727 17.8195L96.4594 16.6887L98.4819 15.5962L100.539 14.5424L102.629 13.5275L104.75 12.5517L106.901 11.6151L109.081 10.7177L111.289 9.8594L113.522 9.04016L115.779 8.25972L118.059 7.51782L120.361 6.81415L122.683 6.14832L125.024 5.51992L127.383 4.92848L129.758 4.37351L132.148 3.85448L134.553 3.37085L136.971 2.92206L139.401 2.50754L141.841 2.12671L144.293 1.779L146.753 1.46386L149.222 1.18074L151.698 0.929123L154.181 0.708521L156.671 0.518476L159.166 0.358571L161.666 0.228436L164.17 0.12775L166.677 0.0562448L169.188 0.0137121L171.701 0L174.216 0.0149824L176.732 0.0585372L179.249 0.130545L181.767 0.230891L184.284 0.359458L186.8 0.516135L189.315 0.700809L191.828 0.913369L194.339 1.1537L196.847 1.42169L199.352 1.71723L201.853 2.04018L204.349 2.39044L206.841 2.76787L209.327 3.17234L211.808 3.60371L214.283 4.06183L216.751 4.54654L219.212 5.05768L221.665 5.59508L224.111 6.15856L226.548 6.74791L228.976 7.36294L231.396 8.00343L233.806 8.66916L236.206 9.35989L238.597 10.0754L240.976 10.8153L243.346 11.5796L245.704 12.3677L248.051 13.1795L250.387 14.0147L252.71 14.873L255.023 15.7539L257.323 16.6571L259.611 17.5821L261.888 18.5285L264.153 19.4957L266.406 20.4831L268.648 21.4902L270.878 22.5165L273.098 23.5614L275.308 24.6243L277.507 25.7046L279.697 26.8018L281.878 27.9153L284.05 29.0447L286.215 30.1894L288.372 31.3491L290.523 32.5232L292.668 33.7115L294.808 34.9136L296.943 36.1293L299.074 37.3583L301.202 38.6004L303.328 39.8555L305.451 41.1236L307.573 42.4046L309.694 43.6987L311.815 45.006L313.936 46.3265L316.057 47.6606L318.179 49.0085L320.303 50.3705L322.427 51.7471L324.553 53.1387L326.681 54.5458L328.81 55.9688L330.94 57.4084L333.071 58.8651L335.203 60.3395L337.336 61.8324L339.468 63.3443L341.599 64.876L343.729 66.4281L345.856 68.0014L347.98 69.5965L350.1 71.2141L352.215 72.8549L354.324 74.5196L356.425 76.2088L358.516 77.9231L360.598 79.6632L362.667 81.4297L364.723 83.2231L366.764 85.0439L368.787 86.8928L370.791 88.77L372.774 90.676L374.734 92.6111L376.668 94.5756L378.575 96.5698L380.451 98.5937L382.296 100.648L384.106 102.731L385.88 104.845L387.614 106.988L389.307 109.161L390.956 111.362L392.558 113.593L394.112 115.852L395.615 118.138L397.065 120.452L398.459 122.792L399.796 125.158L401.073 127.549L402.288 129.963L403.439 132.401L404.525 134.86L405.544 137.34L406.493 139.839L407.372 142.357L408.179 144.891L408.912 147.441L409.571 150.006" fill="#BAB7B7" fill-opacity="0.35"/>
<g clip-path="url(#clip0_97_992)">
<path d="M82.1901 45.9998C71.6215 45.9816 61.1496 48.0096 51.3541 51.9713C50.9597 52.1327 50.5637 52.2949 50.1679 52.4608C35.2812 58.7332 22.5798 69.2533 13.6554 82.7027C4.73102 96.152 -0.0192439 111.932 -6.42192e-05 128.066V217.614C0.0010032 218.56 0.377727 219.467 1.04746 220.135C1.71719 220.804 2.62524 221.18 3.57238 221.181L3.64332 221.188C72.499 233.673 139.438 240 202.657 240C203.605 240 204.552 239.998 205.498 239.996C267.641 239.807 328.15 233.48 385.344 221.19L385.427 221.181C386.375 221.18 387.283 220.804 387.952 220.136C388.622 219.467 388.999 218.56 389 217.614V49.5668C388.999 48.6211 388.622 47.7144 387.952 47.0457C387.283 46.377 386.375 46.0008 385.427 45.9998L82.1901 45.9998Z" fill="#172864"/>
<path d="M296.037 117.417C295.418 117.427 294.827 117.68 294.393 118.121C293.958 118.562 293.715 119.156 293.715 119.774C293.715 120.392 293.958 120.986 294.393 121.427C294.827 121.868 295.418 122.12 296.037 122.131H355.215C355.525 122.136 355.833 122.08 356.122 121.967C356.41 121.853 356.674 121.684 356.897 121.469C357.12 121.253 357.298 120.996 357.421 120.712C357.545 120.428 357.611 120.122 357.616 119.813C357.621 119.503 357.565 119.195 357.451 118.907C357.337 118.619 357.167 118.356 356.951 118.134C356.736 117.912 356.478 117.734 356.193 117.611C355.909 117.488 355.602 117.422 355.292 117.417C355.266 117.417 355.241 117.417 355.215 117.417H296.037Z" fill="#3F3D56"/>
<path d="M368.635 116.761C368.592 116.804 368.557 116.855 368.534 116.912C368.511 116.968 368.499 117.028 368.499 117.089C368.499 117.15 368.511 117.21 368.534 117.266C368.557 117.323 368.592 117.374 368.635 117.417L370.628 119.408H365.712C365.589 119.408 365.471 119.457 365.384 119.543C365.297 119.63 365.248 119.748 365.248 119.871C365.248 119.994 365.297 120.112 365.384 120.199C365.471 120.286 365.589 120.335 365.712 120.335H370.628L368.635 122.326C368.592 122.369 368.557 122.42 368.534 122.476C368.511 122.533 368.499 122.593 368.499 122.654C368.499 122.715 368.511 122.775 368.534 122.831C368.557 122.888 368.592 122.939 368.635 122.982C368.678 123.025 368.729 123.059 368.785 123.082C368.842 123.106 368.902 123.118 368.963 123.118C369.024 123.118 369.084 123.106 369.141 123.082C369.197 123.059 369.248 123.025 369.291 122.982L372.078 120.199C372.165 120.112 372.214 119.994 372.214 119.871C372.214 119.748 372.165 119.63 372.078 119.543L369.291 116.761C369.248 116.718 369.197 116.684 369.141 116.661C369.084 116.637 369.024 116.625 368.963 116.625C368.902 116.625 368.842 116.637 368.785 116.661C368.729 116.684 368.678 116.718 368.635 116.761Z" fill="white"/>
<path d="M282.592 116.761C282.635 116.804 282.669 116.855 282.692 116.912C282.716 116.968 282.728 117.028 282.728 117.089C282.728 117.15 282.716 117.21 282.692 117.266C282.669 117.323 282.635 117.374 282.592 117.417L280.598 119.408H285.514C285.575 119.407 285.636 119.419 285.692 119.443C285.749 119.466 285.8 119.5 285.844 119.543C285.887 119.586 285.921 119.637 285.945 119.694C285.968 119.75 285.98 119.81 285.98 119.871C285.98 119.932 285.968 119.993 285.945 120.049C285.921 120.106 285.887 120.157 285.844 120.2C285.8 120.243 285.749 120.277 285.692 120.3C285.636 120.323 285.575 120.335 285.514 120.335H280.598L282.592 122.326C282.679 122.413 282.728 122.531 282.728 122.654C282.728 122.777 282.679 122.895 282.592 122.982C282.505 123.069 282.386 123.118 282.263 123.118C282.14 123.118 282.022 123.069 281.935 122.982L279.148 120.199C279.061 120.112 279.012 119.994 279.012 119.871C279.012 119.748 279.061 119.63 279.148 119.543L281.935 116.761C281.978 116.718 282.029 116.684 282.086 116.661C282.142 116.637 282.202 116.625 282.263 116.625C282.324 116.625 282.385 116.637 282.441 116.661C282.497 116.684 282.549 116.718 282.592 116.761V116.761Z" fill="white"/>
<g opacity="0.4">
<path d="M298.427 68.504C299.827 68.504 300.963 67.3701 300.963 65.9714C300.963 64.5727 299.827 63.4388 298.427 63.4388C297.026 63.4388 295.89 64.5727 295.89 65.9714C295.89 67.3701 297.026 68.504 298.427 68.504Z" fill="white"/>
<path d="M308.995 68.504C310.396 68.504 311.531 67.3701 311.531 65.9714C311.531 64.5727 310.396 63.4388 308.995 63.4388C307.594 63.4388 306.458 64.5727 306.458 65.9714C306.458 67.3701 307.594 68.504 308.995 68.504Z" fill="white"/>
<path d="M319.563 68.504C320.964 68.504 322.1 67.3701 322.1 65.9714C322.1 64.5727 320.964 63.4388 319.563 63.4388C318.162 63.4388 317.027 64.5727 317.027 65.9714C317.027 67.3701 318.162 68.504 319.563 68.504Z" fill="white"/>
<path d="M330.131 68.504C331.532 68.504 332.668 67.3701 332.668 65.9714C332.668 64.5727 331.532 63.4388 330.131 63.4388C328.731 63.4388 327.595 64.5727 327.595 65.9714C327.595 67.3701 328.731 68.504 330.131 68.504Z" fill="white"/>
<path d="M340.7 68.504C342.101 68.504 343.236 67.3701 343.236 65.9714C343.236 64.5727 342.101 63.4388 340.7 63.4388C339.299 63.4388 338.163 64.5727 338.163 65.9714C338.163 67.3701 339.299 68.504 340.7 68.504Z" fill="white"/>
<path d="M351.268 68.504C352.669 68.504 353.805 67.3701 353.805 65.9714C353.805 64.5727 352.669 63.4388 351.268 63.4388C349.867 63.4388 348.732 64.5727 348.732 65.9714C348.732 67.3701 349.867 68.504 351.268 68.504Z" fill="white"/>
<path d="M361.837 68.504C363.237 68.504 364.373 67.3701 364.373 65.9714C364.373 64.5727 363.237 63.4388 361.837 63.4388C360.436 63.4388 359.3 64.5727 359.3 65.9714C359.3 67.3701 360.436 68.504 361.837 68.504Z" fill="white"/>
<path d="M298.427 76.5237C299.827 76.5237 300.963 75.3899 300.963 73.9912C300.963 72.5925 299.827 71.4586 298.427 71.4586C297.026 71.4586 295.89 72.5925 295.89 73.9912C295.89 75.3899 297.026 76.5237 298.427 76.5237Z" fill="white"/>
<path d="M308.995 76.5237C310.396 76.5237 311.531 75.3899 311.531 73.9912C311.531 72.5925 310.396 71.4586 308.995 71.4586C307.594 71.4586 306.458 72.5925 306.458 73.9912C306.458 75.3899 307.594 76.5237 308.995 76.5237Z" fill="white"/>
<path d="M319.563 76.5237C320.964 76.5237 322.1 75.3899 322.1 73.9912C322.1 72.5925 320.964 71.4586 319.563 71.4586C318.162 71.4586 317.027 72.5925 317.027 73.9912C317.027 75.3899 318.162 76.5237 319.563 76.5237Z" fill="white"/>
<path d="M330.131 76.5237C331.532 76.5237 332.668 75.3899 332.668 73.9912C332.668 72.5925 331.532 71.4586 330.131 71.4586C328.731 71.4586 327.595 72.5925 327.595 73.9912C327.595 75.3899 328.731 76.5237 330.131 76.5237Z" fill="white"/>
<path d="M340.7 76.5237C342.101 76.5237 343.236 75.3899 343.236 73.9912C343.236 72.5925 342.101 71.4586 340.7 71.4586C339.299 71.4586 338.163 72.5925 338.163 73.9912C338.163 75.3899 339.299 76.5237 340.7 76.5237Z" fill="white"/>
<path d="M351.268 76.5237C352.669 76.5237 353.805 75.3899 353.805 73.9912C353.805 72.5925 352.669 71.4586 351.268 71.4586C349.867 71.4586 348.732 72.5925 348.732 73.9912C348.732 75.3899 349.867 76.5237 351.268 76.5237Z" fill="white"/>
<path d="M361.837 76.5237C363.237 76.5237 364.373 75.3899 364.373 73.9912C364.373 72.5925 363.237 71.4586 361.837 71.4586C360.436 71.4586 359.3 72.5925 359.3 73.9912C359.3 75.3899 360.436 76.5237 361.837 76.5237Z" fill="white"/>
<path d="M298.427 84.5435C299.827 84.5435 300.963 83.4097 300.963 82.011C300.963 80.6123 299.827 79.4784 298.427 79.4784C297.026 79.4784 295.89 80.6123 295.89 82.011C295.89 83.4097 297.026 84.5435 298.427 84.5435Z" fill="white"/>
<path d="M308.995 84.5435C310.396 84.5435 311.531 83.4097 311.531 82.011C311.531 80.6123 310.396 79.4784 308.995 79.4784C307.594 79.4784 306.458 80.6123 306.458 82.011C306.458 83.4097 307.594 84.5435 308.995 84.5435Z" fill="white"/>
<path d="M319.563 84.5435C320.964 84.5435 322.1 83.4097 322.1 82.011C322.1 80.6123 320.964 79.4784 319.563 79.4784C318.162 79.4784 317.027 80.6123 317.027 82.011C317.027 83.4097 318.162 84.5435 319.563 84.5435Z" fill="white"/>
<path d="M330.131 84.5435C331.532 84.5435 332.668 83.4097 332.668 82.011C332.668 80.6123 331.532 79.4784 330.131 79.4784C328.731 79.4784 327.595 80.6123 327.595 82.011C327.595 83.4097 328.731 84.5435 330.131 84.5435Z" fill="white"/>
<path d="M340.7 84.5435C342.101 84.5435 343.236 83.4097 343.236 82.011C343.236 80.6123 342.101 79.4784 340.7 79.4784C339.299 79.4784 338.163 80.6123 338.163 82.011C338.163 83.4097 339.299 84.5435 340.7 84.5435Z" fill="white"/>
<path d="M351.268 84.5435C352.669 84.5435 353.805 83.4097 353.805 82.011C353.805 80.6123 352.669 79.4784 351.268 79.4784C349.867 79.4784 348.732 80.6123 348.732 82.011C348.732 83.4097 349.867 84.5435 351.268 84.5435Z" fill="white"/>
<path d="M361.837 84.5435C363.237 84.5435 364.373 83.4097 364.373 82.011C364.373 80.6123 363.237 79.4784 361.837 79.4784C360.436 79.4784 359.3 80.6123 359.3 82.011C359.3 83.4097 360.436 84.5435 361.837 84.5435Z" fill="white"/>
<path d="M298.427 92.5633C299.827 92.5633 300.963 91.4294 300.963 90.0307C300.963 88.632 299.827 87.4982 298.427 87.4982C297.026 87.4982 295.89 88.632 295.89 90.0307C295.89 91.4294 297.026 92.5633 298.427 92.5633Z" fill="white"/>
<path d="M308.995 92.5633C310.396 92.5633 311.531 91.4294 311.531 90.0307C311.531 88.632 310.396 87.4982 308.995 87.4982C307.594 87.4982 306.458 88.632 306.458 90.0307C306.458 91.4294 307.594 92.5633 308.995 92.5633Z" fill="white"/>
<path d="M298.427 100.583C299.827 100.583 300.963 99.4492 300.963 98.0505C300.963 96.6518 299.827 95.5179 298.427 95.5179C297.026 95.5179 295.89 96.6518 295.89 98.0505C295.89 99.4492 297.026 100.583 298.427 100.583Z" fill="white"/>
<path d="M308.995 100.583C310.396 100.583 311.531 99.4492 311.531 98.0505C311.531 96.6518 310.396 95.5179 308.995 95.5179C307.594 95.5179 306.458 96.6518 306.458 98.0505C306.458 99.4492 307.594 100.583 308.995 100.583Z" fill="white"/>
<path d="M319.563 100.583C320.964 100.583 322.1 99.4492 322.1 98.0505C322.1 96.6518 320.964 95.5179 319.563 95.5179C318.162 95.5179 317.027 96.6518 317.027 98.0505C317.027 99.4492 318.162 100.583 319.563 100.583Z" fill="white"/>
<path d="M319.563 92.5633C320.964 92.5633 322.1 91.4294 322.1 90.0307C322.1 88.632 320.964 87.4982 319.563 87.4982C318.162 87.4982 317.027 88.632 317.027 90.0307C317.027 91.4294 318.162 92.5633 319.563 92.5633Z" fill="white"/>
<path d="M330.131 92.5633C331.532 92.5633 332.668 91.4294 332.668 90.0307C332.668 88.632 331.532 87.4982 330.131 87.4982C328.731 87.4982 327.595 88.632 327.595 90.0307C327.595 91.4294 328.731 92.5633 330.131 92.5633Z" fill="white"/>
<path d="M340.7 92.5633C342.101 92.5633 343.236 91.4294 343.236 90.0307C343.236 88.632 342.101 87.4982 340.7 87.4982C339.299 87.4982 338.163 88.632 338.163 90.0307C338.163 91.4294 339.299 92.5633 340.7 92.5633Z" fill="white"/>
<path d="M351.268 92.5633C352.669 92.5633 353.805 91.4294 353.805 90.0307C353.805 88.632 352.669 87.4982 351.268 87.4982C349.867 87.4982 348.732 88.632 348.732 90.0307C348.732 91.4294 349.867 92.5633 351.268 92.5633Z" fill="white"/>
<path d="M361.837 92.5633C363.237 92.5633 364.373 91.4294 364.373 90.0307C364.373 88.632 363.237 87.4982 361.837 87.4982C360.436 87.4982 359.3 88.632 359.3 90.0307C359.3 91.4294 360.436 92.5633 361.837 92.5633Z" fill="white"/>
</g>
<path d="M262.042 194.809C259.273 194.809 256.566 193.989 254.263 192.453C251.961 190.917 250.166 188.733 249.107 186.179C248.047 183.624 247.77 180.814 248.31 178.102C248.85 175.39 250.184 172.899 252.142 170.944C254.1 168.989 256.595 167.657 259.311 167.118C262.027 166.578 264.842 166.855 267.4 167.913C269.958 168.971 272.145 170.763 273.683 173.062C275.222 175.361 276.043 178.064 276.043 180.829C276.039 184.535 274.562 188.089 271.938 190.71C269.313 193.331 265.754 194.805 262.042 194.809V194.809ZM262.042 167.642C259.43 167.642 256.876 168.415 254.705 169.864C252.533 171.313 250.84 173.373 249.84 175.783C248.841 178.192 248.579 180.844 249.089 183.402C249.598 185.96 250.856 188.31 252.703 190.154C254.55 191.998 256.904 193.254 259.465 193.763C262.027 194.272 264.683 194.011 267.096 193.012C269.509 192.014 271.572 190.324 273.023 188.155C274.475 185.987 275.249 183.437 275.249 180.829C275.245 177.333 273.853 173.981 271.377 171.509C268.901 169.036 265.544 167.646 262.042 167.642V167.642Z" fill="#3F3D56"/>
<path d="M267.41 179.489H263.384V175.469C263.384 175.114 263.243 174.773 262.991 174.522C262.739 174.271 262.398 174.129 262.042 174.129C261.686 174.129 261.345 174.271 261.093 174.522C260.842 174.773 260.7 175.114 260.7 175.469V179.489H256.674C256.318 179.489 255.977 179.63 255.725 179.882C255.474 180.133 255.332 180.474 255.332 180.829C255.332 181.184 255.474 181.525 255.725 181.777C255.977 182.028 256.318 182.169 256.674 182.169H260.7V186.189C260.7 186.544 260.842 186.885 261.093 187.136C261.345 187.388 261.686 187.529 262.042 187.529C262.398 187.529 262.739 187.388 262.991 187.136C263.243 186.885 263.384 186.544 263.384 186.189V182.169H267.41C267.766 182.169 268.107 182.028 268.359 181.777C268.61 181.525 268.752 181.184 268.752 180.829C268.752 180.474 268.61 180.133 268.359 179.882C268.107 179.63 267.766 179.489 267.41 179.489V179.489Z" fill="white"/>
<g opacity="0.4">
<path d="M21.4441 196.525C22.5455 196.525 23.4383 195.634 23.4383 194.534C23.4383 193.434 22.5455 192.543 21.4441 192.543C20.3428 192.543 19.45 193.434 19.45 194.534C19.45 195.634 20.3428 196.525 21.4441 196.525Z" fill="white"/>
<path d="M21.4441 188.229C22.5455 188.229 23.4383 187.337 23.4383 186.238C23.4383 185.138 22.5455 184.246 21.4441 184.246C20.3428 184.246 19.45 185.138 19.45 186.238C19.45 187.337 20.3428 188.229 21.4441 188.229Z" fill="white"/>
<path d="M21.4441 179.932C22.5455 179.932 23.4383 179.041 23.4383 177.941C23.4383 176.841 22.5455 175.95 21.4441 175.95C20.3428 175.95 19.45 176.841 19.45 177.941C19.45 179.041 20.3428 179.932 21.4441 179.932Z" fill="white"/>
<path d="M21.4441 171.636C22.5455 171.636 23.4383 170.744 23.4383 169.644C23.4383 168.545 22.5455 167.653 21.4441 167.653C20.3428 167.653 19.45 168.545 19.45 169.644C19.45 170.744 20.3428 171.636 21.4441 171.636Z" fill="white"/>
<path d="M21.4441 163.339C22.5455 163.339 23.4383 162.448 23.4383 161.348C23.4383 160.248 22.5455 159.357 21.4441 159.357C20.3428 159.357 19.45 160.248 19.45 161.348C19.45 162.448 20.3428 163.339 21.4441 163.339Z" fill="white"/>
<path d="M21.4441 155.043C22.5455 155.043 23.4383 154.151 23.4383 153.051C23.4383 151.952 22.5455 151.06 21.4441 151.06C20.3428 151.06 19.45 151.952 19.45 153.051C19.45 154.151 20.3428 155.043 21.4441 155.043Z" fill="white"/>
<path d="M21.4441 146.746C22.5455 146.746 23.4383 145.855 23.4383 144.755C23.4383 143.655 22.5455 142.764 21.4441 142.764C20.3428 142.764 19.45 143.655 19.45 144.755C19.45 145.855 20.3428 146.746 21.4441 146.746Z" fill="white"/>
<path d="M27.7591 196.525C28.8604 196.525 29.7533 195.634 29.7533 194.534C29.7533 193.434 28.8604 192.543 27.7591 192.543C26.6577 192.543 25.7649 193.434 25.7649 194.534C25.7649 195.634 26.6577 196.525 27.7591 196.525Z" fill="white"/>
<path d="M27.7591 188.229C28.8604 188.229 29.7533 187.337 29.7533 186.238C29.7533 185.138 28.8604 184.246 27.7591 184.246C26.6577 184.246 25.7649 185.138 25.7649 186.238C25.7649 187.337 26.6577 188.229 27.7591 188.229Z" fill="white"/>
<path d="M27.7591 179.932C28.8604 179.932 29.7533 179.041 29.7533 177.941C29.7533 176.841 28.8604 175.95 27.7591 175.95C26.6577 175.95 25.7649 176.841 25.7649 177.941C25.7649 179.041 26.6577 179.932 27.7591 179.932Z" fill="white"/>
<path d="M27.7591 171.636C28.8604 171.636 29.7533 170.744 29.7533 169.644C29.7533 168.545 28.8604 167.653 27.7591 167.653C26.6577 167.653 25.7649 168.545 25.7649 169.644C25.7649 170.744 26.6577 171.636 27.7591 171.636Z" fill="white"/>
<path d="M27.7591 163.339C28.8604 163.339 29.7533 162.448 29.7533 161.348C29.7533 160.248 28.8604 159.357 27.7591 159.357C26.6577 159.357 25.7649 160.248 25.7649 161.348C25.7649 162.448 26.6577 163.339 27.7591 163.339Z" fill="white"/>
<path d="M27.7591 155.043C28.8604 155.043 29.7533 154.151 29.7533 153.051C29.7533 151.952 28.8604 151.06 27.7591 151.06C26.6577 151.06 25.7649 151.952 25.7649 153.051C25.7649 154.151 26.6577 155.043 27.7591 155.043Z" fill="white"/>
<path d="M27.7591 146.746C28.8604 146.746 29.7533 145.855 29.7533 144.755C29.7533 143.655 28.8604 142.764 27.7591 142.764C26.6577 142.764 25.7649 143.655 25.7649 144.755C25.7649 145.855 26.6577 146.746 27.7591 146.746Z" fill="white"/>
<path d="M34.074 196.525C35.1754 196.525 36.0682 195.634 36.0682 194.534C36.0682 193.434 35.1754 192.543 34.074 192.543C32.9727 192.543 32.0798 193.434 32.0798 194.534C32.0798 195.634 32.9727 196.525 34.074 196.525Z" fill="white"/>
<path d="M34.074 188.229C35.1754 188.229 36.0682 187.337 36.0682 186.238C36.0682 185.138 35.1754 184.246 34.074 184.246C32.9727 184.246 32.0798 185.138 32.0798 186.238C32.0798 187.337 32.9727 188.229 34.074 188.229Z" fill="white"/>
<path d="M34.074 179.932C35.1754 179.932 36.0682 179.041 36.0682 177.941C36.0682 176.841 35.1754 175.95 34.074 175.95C32.9727 175.95 32.0798 176.841 32.0798 177.941C32.0798 179.041 32.9727 179.932 34.074 179.932Z" fill="white"/>
<path d="M34.074 171.636C35.1754 171.636 36.0682 170.744 36.0682 169.644C36.0682 168.545 35.1754 167.653 34.074 167.653C32.9727 167.653 32.0798 168.545 32.0798 169.644C32.0798 170.744 32.9727 171.636 34.074 171.636Z" fill="white"/>
<path d="M34.074 163.339C35.1754 163.339 36.0682 162.448 36.0682 161.348C36.0682 160.248 35.1754 159.357 34.074 159.357C32.9727 159.357 32.0798 160.248 32.0798 161.348C32.0798 162.448 32.9727 163.339 34.074 163.339Z" fill="white"/>
<path d="M34.074 155.043C35.1754 155.043 36.0682 154.151 36.0682 153.051C36.0682 151.952 35.1754 151.06 34.074 151.06C32.9727 151.06 32.0798 151.952 32.0798 153.051C32.0798 154.151 32.9727 155.043 34.074 155.043Z" fill="white"/>
<path d="M34.074 146.746C35.1754 146.746 36.0682 145.855 36.0682 144.755C36.0682 143.655 35.1754 142.764 34.074 142.764C32.9727 142.764 32.0798 143.655 32.0798 144.755C32.0798 145.855 32.9727 146.746 34.074 146.746Z" fill="white"/>
<path d="M40.3888 196.525C41.4902 196.525 42.383 195.634 42.383 194.534C42.383 193.434 41.4902 192.543 40.3888 192.543C39.2875 192.543 38.3947 193.434 38.3947 194.534C38.3947 195.634 39.2875 196.525 40.3888 196.525Z" fill="white"/>
<path d="M40.3888 188.229C41.4902 188.229 42.383 187.337 42.383 186.238C42.383 185.138 41.4902 184.246 40.3888 184.246C39.2875 184.246 38.3947 185.138 38.3947 186.238C38.3947 187.337 39.2875 188.229 40.3888 188.229Z" fill="white"/>
<path d="M46.7038 196.525C47.8051 196.525 48.698 195.634 48.698 194.534C48.698 193.434 47.8051 192.543 46.7038 192.543C45.6024 192.543 44.7096 193.434 44.7096 194.534C44.7096 195.634 45.6024 196.525 46.7038 196.525Z" fill="white"/>
<path d="M46.7038 188.229C47.8051 188.229 48.698 187.337 48.698 186.238C48.698 185.138 47.8051 184.246 46.7038 184.246C45.6024 184.246 44.7096 185.138 44.7096 186.238C44.7096 187.337 45.6024 188.229 46.7038 188.229Z" fill="white"/>
<path d="M46.7038 179.932C47.8051 179.932 48.698 179.041 48.698 177.941C48.698 176.841 47.8051 175.95 46.7038 175.95C45.6024 175.95 44.7096 176.841 44.7096 177.941C44.7096 179.041 45.6024 179.932 46.7038 179.932Z" fill="white"/>
<path d="M40.3888 179.932C41.4902 179.932 42.383 179.041 42.383 177.941C42.383 176.841 41.4902 175.95 40.3888 175.95C39.2875 175.95 38.3947 176.841 38.3947 177.941C38.3947 179.041 39.2875 179.932 40.3888 179.932Z" fill="white"/>
<path d="M40.3888 171.636C41.4902 171.636 42.383 170.744 42.383 169.644C42.383 168.545 41.4902 167.653 40.3888 167.653C39.2875 167.653 38.3947 168.545 38.3947 169.644C38.3947 170.744 39.2875 171.636 40.3888 171.636Z" fill="white"/>
<path d="M40.3888 163.339C41.4902 163.339 42.383 162.448 42.383 161.348C42.383 160.248 41.4902 159.357 40.3888 159.357C39.2875 159.357 38.3947 160.248 38.3947 161.348C38.3947 162.448 39.2875 163.339 40.3888 163.339Z" fill="white"/>
<path d="M40.3888 155.043C41.4902 155.043 42.383 154.151 42.383 153.051C42.383 151.952 41.4902 151.06 40.3888 151.06C39.2875 151.06 38.3947 151.952 38.3947 153.051C38.3947 154.151 39.2875 155.043 40.3888 155.043Z" fill="white"/>
<path d="M40.3888 146.746C41.4902 146.746 42.383 145.855 42.383 144.755C42.383 143.655 41.4902 142.764 40.3888 142.764C39.2875 142.764 38.3947 143.655 38.3947 144.755C38.3947 145.855 39.2875 146.746 40.3888 146.746Z" fill="white"/>
</g>
<path d="M197.441 59.0801H64.9655C64.3148 59.0807 63.691 59.3391 63.231 59.7985C62.7709 60.2579 62.5121 60.8807 62.5115 61.5304V174.639C62.5121 175.288 62.7709 175.911 63.231 176.371C63.691 176.83 64.3148 177.088 64.9655 177.089H197.441C198.091 177.088 198.715 176.83 199.175 176.371C199.635 175.911 199.894 175.288 199.895 174.639V61.5304C199.894 60.8807 199.635 60.2579 199.175 59.7985C198.715 59.3391 198.091 59.0807 197.441 59.0801ZM198.911 174.639C198.911 175.029 198.756 175.402 198.481 175.678C198.205 175.955 197.831 176.11 197.441 176.112H64.9655C64.5749 176.111 64.2005 175.956 63.9247 175.679C63.6489 175.403 63.4943 175.029 63.4949 174.639V61.5304C63.4943 61.1403 63.6489 60.7661 63.9247 60.4898C64.2005 60.2136 64.5749 60.0581 64.9655 60.0574H197.441C197.831 60.0588 198.205 60.2146 198.481 60.4907C198.756 60.7667 198.911 61.1406 198.911 61.5304V174.639Z" fill="#3F3D56"/>
<path d="M95.5442 156.977C95.5442 157.152 95.5396 157.326 95.5304 157.496C95.3968 160.048 94.2871 162.453 92.4303 164.212C90.5735 165.972 88.1112 166.953 85.5512 166.953C82.9912 166.953 80.5288 165.972 78.672 164.212C76.8152 162.453 75.7056 160.048 75.572 157.496C75.5628 157.326 75.5582 157.152 75.5582 156.977C75.5574 155.666 75.8153 154.368 76.3171 153.157C76.8189 151.946 77.5549 150.845 78.4829 149.918C79.4109 148.991 80.5128 148.255 81.7256 147.753C82.9384 147.251 84.2384 146.993 85.5512 146.993C86.864 146.993 88.164 147.251 89.3768 147.753C90.5896 148.255 91.6915 148.991 92.6195 149.918C93.5475 150.845 94.2835 151.946 94.7853 153.157C95.2871 154.368 95.545 155.666 95.5442 156.977Z" fill="white"/>
<path d="M187.147 150.324H108.628C108.186 150.325 107.763 150.5 107.451 150.812C107.139 151.124 106.964 151.547 106.964 151.987C106.964 152.428 107.139 152.851 107.451 153.162C107.763 153.474 108.186 153.65 108.628 153.651H187.147C187.588 153.65 188.011 153.474 188.323 153.162C188.635 152.851 188.81 152.428 188.81 151.987C188.81 151.547 188.635 151.124 188.323 150.812C188.011 150.5 187.588 150.325 187.147 150.324V150.324Z" fill="#3F3D56"/>
<path d="M142.414 160.304H108.628C108.186 160.304 107.763 160.479 107.451 160.79C107.139 161.102 106.964 161.524 106.964 161.965C106.964 162.406 107.139 162.828 107.451 163.14C107.763 163.451 108.186 163.626 108.628 163.626H142.414C142.855 163.626 143.278 163.451 143.59 163.14C143.902 162.828 144.077 162.406 144.077 161.965C144.077 161.524 143.902 161.102 143.59 160.79C143.278 160.479 142.855 160.304 142.414 160.304Z" fill="white"/>
<path d="M228.914 138.577H96.4395C95.5398 138.576 94.6772 138.219 94.0411 137.583C93.4049 136.948 93.0471 136.087 93.0461 135.189V77.14C93.0471 76.2417 93.405 75.3804 94.0411 74.7452C94.6773 74.11 95.5398 73.7526 96.4395 73.7516H228.914C229.814 73.7526 230.676 74.11 231.312 74.7452C231.948 75.3804 232.306 76.2417 232.307 77.14V135.189C232.306 136.087 231.949 136.948 231.312 137.583C230.676 138.219 229.814 138.576 228.914 138.577V138.577ZM96.4395 74.9406C95.8555 74.9413 95.2957 75.1732 94.8827 75.5856C94.4698 75.9979 94.2376 76.5569 94.237 77.14V135.189C94.2376 135.772 94.4698 136.331 94.8827 136.743C95.2956 137.155 95.8555 137.387 96.4395 137.388H228.914C229.498 137.387 230.058 137.155 230.471 136.743C230.884 136.331 231.116 135.772 231.116 135.189V77.14C231.116 76.5569 230.884 75.9979 230.471 75.5856C230.058 75.1732 229.498 74.9413 228.914 74.9406H96.4395Z" fill="white"/>
<path d="M123.418 94.9238C122.976 94.9238 122.552 95.099 122.24 95.4109C121.928 95.7228 121.752 96.1458 121.752 96.5868C121.752 97.0279 121.928 97.4509 122.24 97.7628C122.552 98.0746 122.976 98.2498 123.418 98.2498H201.935C202.377 98.2498 202.801 98.0746 203.113 97.7628C203.425 97.4509 203.601 97.0279 203.601 96.5868C203.601 96.1458 203.425 95.7228 203.113 95.4109C202.801 95.099 202.377 94.9238 201.935 94.9238H123.418Z" fill="white"/>
<path d="M123.418 104.56C122.976 104.56 122.552 104.735 122.24 105.047C121.928 105.359 121.752 105.782 121.752 106.223C121.752 106.664 121.928 107.087 122.24 107.399C122.552 107.711 122.976 107.886 123.418 107.886H201.935C202.377 107.885 202.8 107.71 203.111 107.398C203.423 107.086 203.598 106.663 203.598 106.223C203.598 105.782 203.423 105.36 203.111 105.048C202.8 104.736 202.377 104.56 201.935 104.56H123.418Z" fill="white"/>
<path d="M123.418 114.079C122.976 114.079 122.552 114.254 122.24 114.566C121.928 114.878 121.752 115.301 121.752 115.742C121.752 116.183 121.928 116.606 122.24 116.918C122.552 117.23 122.976 117.405 123.418 117.405H157.204C157.645 117.404 158.068 117.229 158.38 116.917C158.692 116.605 158.867 116.183 158.867 115.742C158.867 115.301 158.692 114.879 158.38 114.567C158.068 114.255 157.645 114.08 157.204 114.079H123.418Z" fill="white"/>
<path d="M250.756 163.171L237.45 144.421L241.758 145.317C241.834 145.333 241.913 145.334 241.99 145.319C242.067 145.305 242.14 145.275 242.206 145.232C242.271 145.189 242.327 145.134 242.371 145.07C242.416 145.005 242.446 144.932 242.462 144.856C242.478 144.779 242.479 144.701 242.464 144.624C242.45 144.547 242.42 144.474 242.377 144.409C242.335 144.343 242.279 144.287 242.214 144.243C242.15 144.199 242.077 144.168 242.001 144.152L235.582 142.818L234.715 149.306C234.705 149.384 234.71 149.463 234.73 149.538C234.75 149.614 234.784 149.685 234.832 149.747C234.88 149.81 234.939 149.862 235.007 149.901C235.075 149.94 235.149 149.966 235.227 149.976C235.305 149.987 235.384 149.982 235.46 149.961C235.535 149.941 235.606 149.906 235.669 149.859C235.731 149.811 235.783 149.752 235.822 149.684C235.861 149.616 235.887 149.541 235.897 149.463L236.478 145.106L249.784 163.858C249.829 163.922 249.887 163.976 249.953 164.018C250.019 164.059 250.093 164.087 250.17 164.1C250.247 164.113 250.326 164.111 250.402 164.094C250.478 164.077 250.55 164.044 250.614 163.999C250.678 163.954 250.732 163.897 250.774 163.831C250.815 163.765 250.844 163.691 250.857 163.614C250.87 163.537 250.868 163.459 250.85 163.382C250.833 163.306 250.801 163.234 250.756 163.171V163.171Z" fill="white"/>
<path d="M178.49 217.742H83.9164C83.4521 217.741 83.0069 217.557 82.6786 217.229C82.3503 216.901 82.1656 216.457 82.165 215.993V192.569C82.1656 192.105 82.3503 191.661 82.6786 191.333C83.0069 191.005 83.4521 190.821 83.9164 190.82H178.49C178.954 190.821 179.399 191.005 179.728 191.333C180.056 191.661 180.241 192.105 180.241 192.569V215.993C180.241 216.457 180.056 216.901 179.728 217.229C179.399 217.557 178.954 217.741 178.49 217.742V217.742ZM83.9164 191.52C83.6378 191.52 83.3707 191.63 83.1737 191.827C82.9767 192.024 82.8659 192.291 82.8656 192.569V215.993C82.8659 216.271 82.9767 216.538 83.1737 216.735C83.3707 216.931 83.6378 217.042 83.9164 217.042H178.49C178.768 217.042 179.036 216.931 179.233 216.735C179.43 216.538 179.54 216.271 179.541 215.993V192.569C179.54 192.291 179.43 192.024 179.233 191.827C179.036 191.63 178.768 191.52 178.49 191.52H83.9164Z" fill="#3F3D56"/>
<path d="M98.6112 210.505C102.551 210.505 105.745 207.316 105.745 203.382C105.745 199.448 102.551 196.259 98.6112 196.259C94.6711 196.259 91.4771 199.448 91.4771 203.382C91.4771 207.316 94.6711 210.505 98.6112 210.505Z" fill="white"/>
<path d="M115.088 198.633C114.931 198.633 114.776 198.663 114.632 198.723C114.487 198.782 114.356 198.87 114.245 198.98C114.135 199.09 114.047 199.221 113.987 199.366C113.927 199.51 113.896 199.664 113.896 199.82C113.896 199.976 113.927 200.131 113.987 200.275C114.047 200.419 114.135 200.55 114.245 200.661C114.356 200.771 114.487 200.858 114.632 200.918C114.776 200.977 114.931 201.008 115.088 201.008H171.141C171.457 201.008 171.759 200.883 171.982 200.66C172.205 200.437 172.33 200.135 172.33 199.82C172.33 199.506 172.205 199.204 171.982 198.981C171.759 198.758 171.457 198.633 171.141 198.633H115.088Z" fill="white"/>
<path d="M115.088 205.757C114.931 205.756 114.776 205.787 114.632 205.846C114.487 205.906 114.356 205.993 114.245 206.104C114.135 206.214 114.047 206.345 113.987 206.489C113.927 206.633 113.896 206.788 113.896 206.944C113.896 207.1 113.927 207.254 113.987 207.399C114.047 207.543 114.135 207.674 114.245 207.784C114.356 207.894 114.487 207.982 114.632 208.041C114.776 208.101 114.931 208.131 115.088 208.131H139.208C139.523 208.131 139.825 208.006 140.048 207.783C140.271 207.561 140.397 207.259 140.397 206.944C140.397 206.629 140.271 206.327 140.048 206.104C139.825 205.882 139.523 205.757 139.208 205.757H115.088Z" fill="white"/>
<path d="M303.271 134.287H345.304C345.768 134.287 346.213 134.472 346.541 134.8C346.87 135.127 347.054 135.572 347.055 136.035V179.745C347.054 180.208 346.87 180.653 346.541 180.981C346.213 181.308 345.768 181.493 345.304 181.493H303.271C302.807 181.493 302.361 181.308 302.033 180.981C301.705 180.653 301.52 180.208 301.52 179.745V136.035C301.52 135.572 301.705 135.127 302.033 134.8C302.361 134.472 302.807 134.287 303.271 134.287V134.287ZM345.304 180.794C345.582 180.794 345.849 180.683 346.046 180.486C346.243 180.29 346.354 180.023 346.354 179.745V136.035C346.354 135.757 346.243 135.491 346.046 135.294C345.849 135.097 345.582 134.987 345.304 134.986H303.271C302.992 134.987 302.725 135.097 302.528 135.294C302.331 135.491 302.22 135.757 302.22 136.035V179.745C302.22 180.023 302.331 180.29 302.528 180.486C302.725 180.683 302.992 180.794 303.271 180.794H345.304Z" fill="#3F3D56"/>
<path d="M336.347 172.48C336.663 172.48 336.965 172.355 337.188 172.132C337.411 171.909 337.536 171.607 337.536 171.292C337.536 170.978 337.411 170.676 337.188 170.453C336.965 170.23 336.663 170.105 336.347 170.105H312.227C311.912 170.105 311.61 170.23 311.387 170.453C311.164 170.676 311.038 170.978 311.038 171.292C311.038 171.607 311.164 171.909 311.387 172.132C311.61 172.355 311.912 172.48 312.227 172.48H336.347Z" fill="white"/>
<path d="M336.347 165.485C336.504 165.485 336.659 165.455 336.803 165.395C336.948 165.336 337.079 165.248 337.19 165.138C337.3 165.028 337.388 164.897 337.448 164.753C337.508 164.608 337.539 164.454 337.539 164.298C337.539 164.142 337.508 163.987 337.448 163.843C337.388 163.699 337.3 163.568 337.19 163.457C337.079 163.347 336.948 163.26 336.803 163.2C336.659 163.141 336.504 163.11 336.347 163.11H312.227C312.071 163.11 311.916 163.141 311.772 163.2C311.627 163.26 311.496 163.347 311.385 163.457C311.275 163.568 311.187 163.699 311.127 163.843C311.067 163.987 311.036 164.142 311.036 164.298C311.036 164.454 311.067 164.608 311.127 164.753C311.187 164.897 311.275 165.028 311.385 165.138C311.496 165.248 311.627 165.336 311.772 165.395C311.916 165.455 312.071 165.485 312.227 165.485H336.347Z" fill="white"/>
<path d="M324.287 143.3C325.768 143.3 327.215 143.739 328.445 144.56C329.676 145.381 330.635 146.548 331.202 147.913C331.768 149.279 331.917 150.782 331.628 152.231C331.339 153.681 330.626 155.012 329.579 156.058C328.533 157.103 327.199 157.814 325.747 158.103C324.296 158.391 322.791 158.243 321.423 157.677C320.056 157.112 318.887 156.154 318.064 154.925C317.242 153.696 316.803 152.251 316.803 150.773C316.805 148.792 317.594 146.893 318.998 145.492C320.401 144.091 322.303 143.303 324.287 143.3Z" fill="white"/>
</g>
<defs>
<clipPath id="clip0_97_992">
<rect width="389" height="194" fill="white" transform="translate(0 46)"/>
</clipPath>
</defs>
</svg>
