<svg width="309" height="320" viewBox="0 0 309 320" fill="none" xmlns="http://www.w3.org/2000/svg">
<path fill-rule="evenodd" clip-rule="evenodd" d="M280.072 155.82V155.82L279.2 157.128L278.357 158.418L277.543 159.69L276.759 160.947L276.006 162.189L275.285 163.418L274.595 164.635L273.937 165.841L273.311 167.039L272.717 168.229L272.154 169.412L271.622 170.59L271.121 171.765L270.651 172.937L270.211 174.107L269.8 175.278L269.42 176.45L269.069 177.624L268.747 178.803L268.453 179.986L268.188 181.176L267.951 182.373L267.74 183.578L267.557 184.794L267.399 186.02L267.267 187.259L267.159 188.51L267.076 189.776L267.015 191.057L266.978 192.354L266.961 193.668L266.966 195L266.991 196.352L267.035 197.724L267.097 199.116L267.177 200.531L267.274 201.968L267.386 203.429L267.515 204.915L267.657 206.426L267.813 207.964L267.981 209.528L268.161 211.121L268.351 212.741L268.549 214.39L268.754 216.068L268.964 217.775L269.177 219.511L269.393 221.277L269.607 223.072L269.82 224.895L270.028 226.747L270.229 228.626L270.421 230.533L270.602 232.466L270.77 234.424L270.922 236.407L271.055 238.412L271.168 240.439L271.258 242.487L271.323 244.552L271.36 246.634L271.367 248.731L271.342 250.841L271.283 252.962L271.188 255.091L271.054 257.226L270.879 259.364L270.662 261.504L270.402 263.642L270.095 265.777L269.741 267.904L269.338 270.022L268.885 272.127L268.38 274.218L267.824 276.29L267.214 278.342L266.55 280.369L265.831 282.37L265.058 284.342L264.228 286.281L263.344 288.186L262.403 290.053L261.408 291.88L260.357 293.664L259.252 295.402L258.092 297.093L256.879 298.735L255.614 300.324L254.298 301.859L252.931 303.339L251.516 304.761L250.053 306.123L248.543 307.425L246.99 308.666L245.394 309.843L243.758 310.956L242.082 312.005L240.37 312.988L238.623 313.906L236.843 314.758L235.033 315.544L233.194 316.264L231.329 316.918L229.441 317.508L227.53 318.033L225.6 318.493L223.653 318.891L221.691 319.226L219.715 319.499L217.728 319.712L215.732 319.866L213.729 319.961L211.72 320L209.708 319.983L207.695 319.913L205.682 319.791L203.671 319.618L201.663 319.396L199.66 319.128L197.664 318.814L195.675 318.457L193.696 318.059L191.727 317.621L189.769 317.145L187.824 316.634L185.893 316.089L183.975 315.511L182.072 314.902L180.185 314.265L178.315 313.599L176.461 312.907L174.624 312.189L172.806 311.448L171.005 310.683L169.223 309.897L167.459 309.09L165.715 308.263L163.99 307.417L162.284 306.554L160.598 305.674L158.932 304.778L157.285 303.867L155.659 302.942L154.052 302.004L152.466 301.053L150.899 300.09L149.352 299.116L147.825 298.131L146.318 297.135L144.831 296.13L143.364 295.115L141.916 294.091L140.488 293.059L139.08 292.018L137.691 290.969L136.322 289.912L134.972 288.847L133.642 287.775L132.331 286.695L131.04 285.608L129.768 284.513L128.515 283.412L127.282 282.303L126.068 281.186L124.874 280.063L123.699 278.932L122.544 277.794L121.408 276.649L120.293 275.497L119.197 274.339L118.121 273.173L117.064 272L116.028 270.82L115.012 269.634L114.016 268.441L113.04 267.242L112.085 266.036L111.149 264.825L110.234 263.608L109.339 262.386L108.465 261.159L107.61 259.926L106.776 258.69L105.962 257.45L105.167 256.206L104.392 254.96L103.637 253.711L102.901 252.46L102.184 251.208L101.486 249.955L100.805 248.702L100.143 247.45L99.4984 246.199L98.8705 244.949L98.259 243.703L97.6633 242.459L97.0828 241.22L96.5165 239.985L95.9636 238.756L95.4228 237.535L94.893 236.321L94.3728 235.117L93.8608 233.923L93.3553 232.741L92.8547 231.572L92.3572 230.416L91.861 229.276L91.3642 228.152L90.8649 227.044L90.3611 225.955L89.8507 224.884L89.3316 223.833L88.8019 222.802L88.2594 221.792L87.7021 220.803L87.1279 219.834L86.5349 218.887L85.921 217.962L85.2844 217.058L84.6232 216.174L83.9356 215.312L83.2198 214.47L82.4742 213.647L81.6973 212.843L80.8874 212.058L80.0434 211.29L79.1638 210.537L78.2477 209.8L77.294 209.077L76.3021 208.366L75.2713 207.666L74.201 206.975L73.0911 206.292L71.9414 205.614L70.7519 204.941L69.5229 204.27L68.2549 203.599L66.9483 202.927L65.6041 202.252L64.223 201.57L62.8064 200.882L61.3555 200.183L59.8717 199.474L58.3568 198.751L56.8124 198.012L55.2407 197.257L53.6437 196.482L52.0236 195.687L50.3829 194.869L48.724 194.027L47.0496 193.16L45.3624 192.265L43.6653 191.342L41.9611 190.39L40.2529 189.406L38.5438 188.391L36.8367 187.344L35.135 186.262L33.4418 185.147L31.7602 183.997L30.0936 182.812L28.445 181.592L26.8177 180.336L25.2148 179.045L23.6395 177.719L22.0947 176.358L20.5835 174.962L19.1088 173.532L17.6734 172.069L16.2801 170.573L14.9313 169.046L13.6298 167.487L12.3777 165.899L11.1774 164.283L10.0309 162.639L8.94022 160.969L7.9071 159.275L6.93319 157.558L6.01994 155.82L5.16863 154.062L4.38038 152.286L3.65613 150.493L2.99664 148.686L2.40249 146.866L1.87408 145.034L1.41164 143.193L1.01522 141.345L0.684702 139.49L0.419781 137.632L0.219904 135.77L0.0841781 133.908L0.0113827 132.046L0 130.187L0.0482398 128.33L0.154067 126.478L0.315228 124.631L0.529283 122.791L0.793628 120.957L1.10553 119.132L1.46216 117.315L1.86059 115.507L2.29787 113.707L2.77104 111.917L3.27712 110.136L3.81319 108.363L4.37639 106.599L4.96395 104.843L5.57321 103.094L6.20165 101.353L6.84693 99.6183L7.50688 97.8893L8.17953 96.1654L8.86314 94.446L9.55622 92.7303L10.2575 91.0177L10.9661 89.3075L11.6813 87.5993L12.4028 85.8925L13.1301 84.1869L13.8634 82.4819L14.6026 80.7775L15.3478 79.0732L16.0993 77.3688L16.8574 75.6644L17.6226 73.9598L18.3954 72.255L19.1765 70.5501L19.9667 68.8453L20.7666 67.1409L21.5772 65.4371L22.3994 63.7345L23.2341 62.0334L24.0824 60.3344L24.9452 58.6383L25.8237 56.9458L26.7189 55.2577L27.6318 53.5748L28.5636 51.8982L29.5152 50.2288L30.4877 48.5678L31.4821 46.9162L32.4994 45.2754L33.5404 43.6465L34.606 42.0308L35.6971 40.4296L36.8142 38.8443L37.9582 37.2762L39.1296 35.7267L40.329 34.1971L41.5566 32.689L42.813 31.2035L44.0984 29.7421L45.4129 28.3062L46.7566 26.8969L48.1296 25.5156L49.5317 24.1636L50.9628 22.8419L52.4226 21.5518L53.9107 20.2944L55.4268 19.0705L56.9703 17.8812L58.5407 16.7275L60.1372 15.61L61.7593 14.5295L63.406 13.4867L65.0765 12.4822L66.77 11.5165L68.4854 10.59L70.2219 9.70304L71.9783 8.8559L73.7537 8.04876L75.5469 7.28173L77.3567 6.55484L79.1822 5.86806L81.0221 5.22128L82.8753 4.61432L84.7406 4.04693L86.6169 3.51881L88.5031 3.02961L90.398 2.5789L92.3006 2.16624L94.2097 1.7911L96.1242 1.45298L98.0432 1.15134L99.9657 0.885708L101.891 0.655623L103.818 0.460659L105.745 0.300423L107.673 0.174554L109.599 0.0827215L111.525 0.0246272L113.448 0L115.368 0.00859473L117.285 0.0501878L119.198 0.124573L121.105 0.231556L123.007 0.370948L124.903 0.54256L126.793 0.746193L128.675 0.981634L130.549 1.24864L132.415 1.54693L134.271 1.87619L136.118 2.23604L137.954 2.62602L139.78 3.04561L141.594 3.49419L143.396 3.97102L145.185 4.47527L146.961 5.00595L148.724 5.56194L150.472 6.14204L152.206 6.74504L153.925 7.36968L155.628 8.0147L157.316 8.67883L158.988 9.36076L160.644 10.0592L162.284 10.7728L163.908 11.5002L165.515 12.2401L167.107 12.9911L168.682 13.7519L170.241 14.521L171.784 15.2971L173.312 16.0789L174.825 16.8649L176.322 17.6538L177.805 18.4442L179.274 19.2347L180.729 20.024L182.172 20.8109L183.602 21.5939L185.02 22.3719L186.427 23.1435L187.824 23.9075L189.212 24.6628L190.591 25.4083L191.963 26.1428L193.328 26.8652L194.688 27.5746L196.042 28.2701L197.394 28.9507L198.742 29.6157L200.09 30.2643L201.437 30.8958L202.785 31.5096L204.136 32.1053L205.49 32.6823L206.848 33.2404L208.212 33.7792L209.583 34.2986L210.962 34.7985L212.35 35.279L213.749 35.7402L215.159 36.1822L216.582 36.6055L218.018 37.0104L219.469 37.3974L220.936 37.7673L222.419 38.1207L223.919 38.4585L225.437 38.7816L226.974 39.091L228.531 39.3879L230.107 39.6735L231.703 39.9491L233.32 40.2162L234.958 40.4761L236.616 40.7306L238.296 40.9812L239.996 41.2297L241.717 41.4778L243.458 41.7274L245.22 41.9804L247 42.2387L248.799 42.5044L250.615 42.7798L252.447 43.0672L254.294 43.3691L256.155 43.6879L258.026 44.0263L259.906 44.3869L261.794 44.7723L263.685 45.185L265.579 45.6277L267.471 46.1029L269.36 46.6129L271.241 47.1602L273.112 47.7469L274.97 48.3752L276.811 49.0469L278.631 49.764L280.428 50.528L282.198 51.3404L283.936 52.2025L285.641 53.1153L287.307 54.0797L288.933 55.0964L290.514 56.1657L292.046 57.288L293.528 58.4632L294.956 59.691L296.327 60.971L297.638 62.3025L298.886 63.6847L300.07 65.1164L301.186 66.5965L302.234 68.1235L303.21 69.6958L304.114 71.3116L304.943 72.9691L305.698 74.6661L306.375 76.4006L306.976 78.1702L307.499 79.9726L307.943 81.8053L308.31 83.6656L308.598 85.551L308.809 87.4587L308.942 89.3861L309 91.3304L308.983 93.2889L308.891 95.2587L308.728 97.2372L308.494 99.2216L308.191 101.209L307.823 103.197L307.39 105.184L306.895 107.165L306.342 109.14L305.732 111.106L305.07 113.06L304.357 115.001L303.597 116.926L302.794 118.834L301.95 120.723L301.07 122.591L300.156 124.437L299.212 126.26L298.242 128.058L297.25 129.831L296.238 131.577L295.21 133.296L294.17 134.988L293.122 136.652L292.068 138.287L291.011 139.895L289.956 141.474L288.905 143.025L287.861 144.548L286.827 146.045L285.805 147.514L284.799 148.958L283.81 150.377L282.841 151.771L281.894 153.143L280.97 154.492L280.072 155.82" fill="#E6E6E6"/>
<g clip-path="url(#clip0_97_902)">
<path d="M89.5051 45.0154C90.8941 45.0154 92.02 43.8927 92.02 42.5077C92.02 41.1227 90.8941 40 89.5051 40C88.1162 40 86.9902 41.1227 86.9902 42.5077C86.9902 43.8927 88.1162 45.0154 89.5051 45.0154Z" fill="#E6E6E6"/>
<path d="M102.236 45.0154C103.624 45.0154 104.75 43.8927 104.75 42.5077C104.75 41.1227 103.624 40 102.236 40C100.847 40 99.7206 41.1227 99.7206 42.5077C99.7206 43.8927 100.847 45.0154 102.236 45.0154Z" fill="#E6E6E6"/>
<path d="M114.966 45.0154C116.355 45.0154 117.481 43.8927 117.481 42.5077C117.481 41.1227 116.355 40 114.966 40C113.577 40 112.451 41.1227 112.451 42.5077C112.451 43.8927 113.577 45.0154 114.966 45.0154Z" fill="#E6E6E6"/>
<path d="M127.696 45.0154C129.085 45.0154 130.211 43.8927 130.211 42.5077C130.211 41.1227 129.085 40 127.696 40C126.307 40 125.181 41.1227 125.181 42.5077C125.181 43.8927 126.307 45.0154 127.696 45.0154Z" fill="#E6E6E6"/>
<path d="M140.427 45.0154C141.816 45.0154 142.942 43.8927 142.942 42.5077C142.942 41.1227 141.816 40 140.427 40C139.038 40 137.912 41.1227 137.912 42.5077C137.912 43.8927 139.038 45.0154 140.427 45.0154Z" fill="#E6E6E6"/>
<path d="M89.5051 57.8687C90.8941 57.8687 92.02 56.7459 92.02 55.361C92.02 53.976 90.8941 52.8533 89.5051 52.8533C88.1162 52.8533 86.9902 53.976 86.9902 55.361C86.9902 56.7459 88.1162 57.8687 89.5051 57.8687Z" fill="#E6E6E6"/>
<path d="M102.236 57.8687C103.624 57.8687 104.75 56.7459 104.75 55.361C104.75 53.976 103.624 52.8533 102.236 52.8533C100.847 52.8533 99.7206 53.976 99.7206 55.361C99.7206 56.7459 100.847 57.8687 102.236 57.8687Z" fill="#E6E6E6"/>
<path d="M114.966 57.8687C116.355 57.8687 117.481 56.7459 117.481 55.361C117.481 53.976 116.355 52.8533 114.966 52.8533C113.577 52.8533 112.451 53.976 112.451 55.361C112.451 56.7459 113.577 57.8687 114.966 57.8687Z" fill="#E6E6E6"/>
<path d="M127.696 57.8687C129.085 57.8687 130.211 56.7459 130.211 55.361C130.211 53.976 129.085 52.8533 127.696 52.8533C126.307 52.8533 125.181 53.976 125.181 55.361C125.181 56.7459 126.307 57.8687 127.696 57.8687Z" fill="#6C63FF"/>
<path d="M140.427 57.8687C141.816 57.8687 142.942 56.7459 142.942 55.361C142.942 53.976 141.816 52.8533 140.427 52.8533C139.038 52.8533 137.912 53.976 137.912 55.361C137.912 56.7459 139.038 57.8687 140.427 57.8687Z" fill="#E6E6E6"/>
<path d="M165.887 57.8687C167.276 57.8687 168.402 56.7459 168.402 55.361C168.402 53.976 167.276 52.8533 165.887 52.8533C164.498 52.8533 163.372 53.976 163.372 55.361C163.372 56.7459 164.498 57.8687 165.887 57.8687Z" fill="#E6E6E6"/>
<path d="M89.5051 70.722C90.8941 70.722 92.02 69.5992 92.02 68.2142C92.02 66.8293 90.8941 65.7065 89.5051 65.7065C88.1162 65.7065 86.9902 66.8293 86.9902 68.2142C86.9902 69.5992 88.1162 70.722 89.5051 70.722Z" fill="#E6E6E6"/>
<path d="M102.236 70.722C103.624 70.722 104.75 69.5992 104.75 68.2142C104.75 66.8293 103.624 65.7065 102.236 65.7065C100.847 65.7065 99.7206 66.8293 99.7206 68.2142C99.7206 69.5992 100.847 70.722 102.236 70.722Z" fill="#E6E6E6"/>
<path d="M114.966 70.722C116.355 70.722 117.481 69.5992 117.481 68.2142C117.481 66.8293 116.355 65.7065 114.966 65.7065C113.577 65.7065 112.451 66.8293 112.451 68.2142C112.451 69.5992 113.577 70.722 114.966 70.722Z" fill="#E6E6E6"/>
<path d="M127.696 70.722C129.085 70.722 130.211 69.5992 130.211 68.2142C130.211 66.8293 129.085 65.7065 127.696 65.7065C126.307 65.7065 125.181 66.8293 125.181 68.2142C125.181 69.5992 126.307 70.722 127.696 70.722Z" fill="#E6E6E6"/>
<path d="M140.427 70.722C141.816 70.722 142.942 69.5992 142.942 68.2142C142.942 66.8293 141.816 65.7065 140.427 65.7065C139.038 65.7065 137.912 66.8293 137.912 68.2142C137.912 69.5992 139.038 70.722 140.427 70.722Z" fill="#E6E6E6"/>
<path d="M89.5051 83.5752C90.8941 83.5752 92.02 82.4525 92.02 81.0675C92.02 79.6826 90.8941 78.5598 89.5051 78.5598C88.1162 78.5598 86.9902 79.6826 86.9902 81.0675C86.9902 82.4525 88.1162 83.5752 89.5051 83.5752Z" fill="#E6E6E6"/>
<path d="M102.236 83.5752C103.624 83.5752 104.75 82.4525 104.75 81.0675C104.75 79.6826 103.624 78.5598 102.236 78.5598C100.847 78.5598 99.7206 79.6826 99.7206 81.0675C99.7206 82.4525 100.847 83.5752 102.236 83.5752Z" fill="#E6E6E6"/>
<path d="M114.966 83.5752C116.355 83.5752 117.481 82.4525 117.481 81.0675C117.481 79.6826 116.355 78.5598 114.966 78.5598C113.577 78.5598 112.451 79.6826 112.451 81.0675C112.451 82.4525 113.577 83.5752 114.966 83.5752Z" fill="#E6E6E6"/>
<path d="M127.696 83.5752C129.085 83.5752 130.211 82.4525 130.211 81.0675C130.211 79.6826 129.085 78.5598 127.696 78.5598C126.307 78.5598 125.181 79.6826 125.181 81.0675C125.181 82.4525 126.307 83.5752 127.696 83.5752Z" fill="#E6E6E6"/>
<path d="M140.427 83.5752C141.816 83.5752 142.942 82.4525 142.942 81.0675C142.942 79.6826 141.816 78.5598 140.427 78.5598C139.038 78.5598 137.912 79.6826 137.912 81.0675C137.912 82.4525 139.038 83.5752 140.427 83.5752Z" fill="#E6E6E6"/>
<path d="M153.157 83.5752C154.546 83.5752 155.672 82.4525 155.672 81.0675C155.672 79.6826 154.546 78.5598 153.157 78.5598C151.768 78.5598 150.642 79.6826 150.642 81.0675C150.642 82.4525 151.768 83.5752 153.157 83.5752Z" fill="#E6E6E6"/>
<path d="M165.887 83.5752C167.276 83.5752 168.402 82.4525 168.402 81.0675C168.402 79.6826 167.276 78.5598 165.887 78.5598C164.498 78.5598 163.372 79.6826 163.372 81.0675C163.372 82.4525 164.498 83.5752 165.887 83.5752Z" fill="#E6E6E6"/>
<path d="M178.618 83.5752C180.007 83.5752 181.133 82.4525 181.133 81.0675C181.133 79.6826 180.007 78.5598 178.618 78.5598C177.229 78.5598 176.103 79.6826 176.103 81.0675C176.103 82.4525 177.229 83.5752 178.618 83.5752Z" fill="#E6E6E6"/>
<path d="M191.348 83.5752C192.737 83.5752 193.863 82.4525 193.863 81.0675C193.863 79.6826 192.737 78.5598 191.348 78.5598C189.959 78.5598 188.833 79.6826 188.833 81.0675C188.833 82.4525 189.959 83.5752 191.348 83.5752Z" fill="#E6E6E6"/>
<path d="M204.078 83.5752C205.467 83.5752 206.593 82.4525 206.593 81.0675C206.593 79.6826 205.467 78.5598 204.078 78.5598C202.689 78.5598 201.563 79.6826 201.563 81.0675C201.563 82.4525 202.689 83.5752 204.078 83.5752Z" fill="#E6E6E6"/>
<path d="M140.427 96.4285C141.816 96.4285 142.942 95.3058 142.942 93.9208C142.942 92.5358 141.816 91.4131 140.427 91.4131C139.038 91.4131 137.912 92.5358 137.912 93.9208C137.912 95.3058 139.038 96.4285 140.427 96.4285Z" fill="#E6E6E6"/>
<path d="M153.157 96.4285C154.546 96.4285 155.672 95.3058 155.672 93.9208C155.672 92.5358 154.546 91.4131 153.157 91.4131C151.768 91.4131 150.642 92.5358 150.642 93.9208C150.642 95.3058 151.768 96.4285 153.157 96.4285Z" fill="#6C63FF"/>
<path d="M165.887 96.4285C167.276 96.4285 168.402 95.3058 168.402 93.9208C168.402 92.5358 167.276 91.4131 165.887 91.4131C164.498 91.4131 163.372 92.5358 163.372 93.9208C163.372 95.3058 164.498 96.4285 165.887 96.4285Z" fill="#E6E6E6"/>
<path d="M178.618 96.4285C180.007 96.4285 181.133 95.3058 181.133 93.9208C181.133 92.5358 180.007 91.4131 178.618 91.4131C177.229 91.4131 176.103 92.5358 176.103 93.9208C176.103 95.3058 177.229 96.4285 178.618 96.4285Z" fill="#E6E6E6"/>
<path d="M191.348 96.4285C192.737 96.4285 193.863 95.3058 193.863 93.9208C193.863 92.5358 192.737 91.4131 191.348 91.4131C189.959 91.4131 188.833 92.5358 188.833 93.9208C188.833 95.3058 189.959 96.4285 191.348 96.4285Z" fill="#E6E6E6"/>
<path d="M204.078 96.4285C205.467 96.4285 206.593 95.3058 206.593 93.9208C206.593 92.5358 205.467 91.4131 204.078 91.4131C202.689 91.4131 201.563 92.5358 201.563 93.9208C201.563 95.3058 202.689 96.4285 204.078 96.4285Z" fill="#E6E6E6"/>
<path d="M140.427 109.282C141.816 109.282 142.942 108.159 142.942 106.774C142.942 105.389 141.816 104.266 140.427 104.266C139.038 104.266 137.912 105.389 137.912 106.774C137.912 108.159 139.038 109.282 140.427 109.282Z" fill="#E6E6E6"/>
<path d="M153.157 109.282C154.546 109.282 155.672 108.159 155.672 106.774C155.672 105.389 154.546 104.266 153.157 104.266C151.768 104.266 150.642 105.389 150.642 106.774C150.642 108.159 151.768 109.282 153.157 109.282Z" fill="#E6E6E6"/>
<path d="M165.887 109.282C167.276 109.282 168.402 108.159 168.402 106.774C168.402 105.389 167.276 104.266 165.887 104.266C164.498 104.266 163.372 105.389 163.372 106.774C163.372 108.159 164.498 109.282 165.887 109.282Z" fill="#E6E6E6"/>
<path d="M178.618 109.282C180.007 109.282 181.133 108.159 181.133 106.774C181.133 105.389 180.007 104.266 178.618 104.266C177.229 104.266 176.103 105.389 176.103 106.774C176.103 108.159 177.229 109.282 178.618 109.282Z" fill="#E6E6E6"/>
<path d="M191.348 109.282C192.737 109.282 193.863 108.159 193.863 106.774C193.863 105.389 192.737 104.266 191.348 104.266C189.959 104.266 188.833 105.389 188.833 106.774C188.833 108.159 189.959 109.282 191.348 109.282Z" fill="#6C63FF"/>
<path d="M204.078 109.282C205.467 109.282 206.593 108.159 206.593 106.774C206.593 105.389 205.467 104.266 204.078 104.266C202.689 104.266 201.563 105.389 201.563 106.774C201.563 108.159 202.689 109.282 204.078 109.282Z" fill="#E6E6E6"/>
<path d="M140.427 122.135C141.816 122.135 142.942 121.012 142.942 119.627C142.942 118.242 141.816 117.12 140.427 117.12C139.038 117.12 137.912 118.242 137.912 119.627C137.912 121.012 139.038 122.135 140.427 122.135Z" fill="#E6E6E6"/>
<path d="M153.157 122.135C154.546 122.135 155.672 121.012 155.672 119.627C155.672 118.242 154.546 117.12 153.157 117.12C151.768 117.12 150.642 118.242 150.642 119.627C150.642 121.012 151.768 122.135 153.157 122.135Z" fill="#E6E6E6"/>
<path d="M165.887 122.135C167.276 122.135 168.402 121.012 168.402 119.627C168.402 118.242 167.276 117.12 165.887 117.12C164.498 117.12 163.372 118.242 163.372 119.627C163.372 121.012 164.498 122.135 165.887 122.135Z" fill="#E6E6E6"/>
<path d="M178.618 122.135C180.007 122.135 181.133 121.012 181.133 119.627C181.133 118.242 180.007 117.12 178.618 117.12C177.229 117.12 176.103 118.242 176.103 119.627C176.103 121.012 177.229 122.135 178.618 122.135Z" fill="#E6E6E6"/>
<path d="M191.348 122.135C192.737 122.135 193.863 121.012 193.863 119.627C193.863 118.242 192.737 117.12 191.348 117.12C189.959 117.12 188.833 118.242 188.833 119.627C188.833 121.012 189.959 122.135 191.348 122.135Z" fill="#E6E6E6"/>
<path d="M204.078 122.135C205.467 122.135 206.593 121.012 206.593 119.627C206.593 118.242 205.467 117.12 204.078 117.12C202.689 117.12 201.563 118.242 201.563 119.627C201.563 121.012 202.689 122.135 204.078 122.135Z" fill="#E6E6E6"/>
<path d="M89.5051 134.988C90.8941 134.988 92.02 133.866 92.02 132.481C92.02 131.096 90.8941 129.973 89.5051 129.973C88.1162 129.973 86.9902 131.096 86.9902 132.481C86.9902 133.866 88.1162 134.988 89.5051 134.988Z" fill="#E6E6E6"/>
<path d="M102.236 134.988C103.624 134.988 104.75 133.866 104.75 132.481C104.75 131.096 103.624 129.973 102.236 129.973C100.847 129.973 99.7206 131.096 99.7206 132.481C99.7206 133.866 100.847 134.988 102.236 134.988Z" fill="#E6E6E6"/>
<path d="M114.966 134.988C116.355 134.988 117.481 133.866 117.481 132.481C117.481 131.096 116.355 129.973 114.966 129.973C113.577 129.973 112.451 131.096 112.451 132.481C112.451 133.866 113.577 134.988 114.966 134.988Z" fill="#E6E6E6"/>
<path d="M127.696 134.988C129.085 134.988 130.211 133.866 130.211 132.481C130.211 131.096 129.085 129.973 127.696 129.973C126.307 129.973 125.181 131.096 125.181 132.481C125.181 133.866 126.307 134.988 127.696 134.988Z" fill="#E6E6E6"/>
<path d="M140.427 134.988C141.816 134.988 142.942 133.866 142.942 132.481C142.942 131.096 141.816 129.973 140.427 129.973C139.038 129.973 137.912 131.096 137.912 132.481C137.912 133.866 139.038 134.988 140.427 134.988Z" fill="#E6E6E6"/>
<path d="M153.157 134.988C154.546 134.988 155.672 133.866 155.672 132.481C155.672 131.096 154.546 129.973 153.157 129.973C151.768 129.973 150.642 131.096 150.642 132.481C150.642 133.866 151.768 134.988 153.157 134.988Z" fill="#E6E6E6"/>
<path d="M165.887 134.988C167.276 134.988 168.402 133.866 168.402 132.481C168.402 131.096 167.276 129.973 165.887 129.973C164.498 129.973 163.372 131.096 163.372 132.481C163.372 133.866 164.498 134.988 165.887 134.988Z" fill="#E6E6E6"/>
<path d="M178.618 134.988C180.007 134.988 181.133 133.866 181.133 132.481C181.133 131.096 180.007 129.973 178.618 129.973C177.229 129.973 176.103 131.096 176.103 132.481C176.103 133.866 177.229 134.988 178.618 134.988Z" fill="#E6E6E6"/>
<path d="M191.348 134.988C192.737 134.988 193.863 133.866 193.863 132.481C193.863 131.096 192.737 129.973 191.348 129.973C189.959 129.973 188.833 131.096 188.833 132.481C188.833 133.866 189.959 134.988 191.348 134.988Z" fill="#E6E6E6"/>
<path d="M204.078 134.988C205.467 134.988 206.593 133.866 206.593 132.481C206.593 131.096 205.467 129.973 204.078 129.973C202.689 129.973 201.563 131.096 201.563 132.481C201.563 133.866 202.689 134.988 204.078 134.988Z" fill="#E6E6E6"/>
<path d="M89.5037 147.841C90.8927 147.841 92.0186 146.718 92.0186 145.333C92.0186 143.949 90.8927 142.826 89.5037 142.826C88.1148 142.826 86.9888 143.949 86.9888 145.333C86.9888 146.718 88.1148 147.841 89.5037 147.841Z" fill="#E6E6E6"/>
<path d="M102.236 147.842C103.624 147.842 104.75 146.719 104.75 145.334C104.75 143.949 103.624 142.826 102.236 142.826C100.847 142.826 99.7206 143.949 99.7206 145.334C99.7206 146.719 100.847 147.842 102.236 147.842Z" fill="#E6E6E6"/>
<path d="M89.5037 160.694C90.8926 160.694 92.0186 159.572 92.0186 158.187C92.0186 156.802 90.8926 155.679 89.5037 155.679C88.1147 155.679 86.9888 156.802 86.9888 158.187C86.9888 159.572 88.1147 160.694 89.5037 160.694Z" fill="#E6E6E6"/>
<path d="M102.236 160.695C103.624 160.695 104.75 159.572 104.75 158.187C104.75 156.802 103.624 155.68 102.236 155.68C100.847 155.68 99.7206 156.802 99.7206 158.187C99.7206 159.572 100.847 160.695 102.236 160.695Z" fill="#E6E6E6"/>
<path d="M127.696 160.695C129.085 160.695 130.211 159.572 130.211 158.187C130.211 156.802 129.085 155.68 127.696 155.68C126.307 155.68 125.181 156.802 125.181 158.187C125.181 159.572 126.307 160.695 127.696 160.695Z" fill="#E6E6E6"/>
<path d="M254.589 69.5859H154.928C154.439 69.5854 153.969 69.3913 153.623 69.0463C153.277 68.7013 153.083 68.2335 153.082 67.7456V43.0948C153.083 42.6069 153.277 42.1392 153.623 41.7942C153.969 41.4492 154.439 41.2551 154.928 41.2545H254.589C255.078 41.2551 255.547 41.4492 255.893 41.7942C256.239 42.1392 256.434 42.6069 256.434 43.0948V67.7457C256.434 68.2336 256.239 68.7013 255.893 69.0463C255.547 69.3913 255.078 69.5854 254.589 69.5859ZM154.928 41.9906C154.634 41.991 154.353 42.1074 154.145 42.3144C153.938 42.5214 153.821 42.8021 153.821 43.0948V67.7457C153.821 68.0384 153.938 68.3191 154.145 68.5261C154.353 68.7331 154.634 68.8495 154.928 68.8498H254.589C254.882 68.8495 255.164 68.7331 255.371 68.5261C255.579 68.3191 255.696 68.0384 255.696 67.7457V43.0948C255.696 42.8021 255.579 42.5214 255.371 42.3144C255.164 42.1074 254.882 41.991 254.589 41.9906H154.928Z" fill="#E6E6E6"/>
<path d="M167.847 63.1493C172.128 63.1493 175.598 59.6888 175.598 55.4201C175.598 51.1514 172.128 47.6909 167.847 47.6909C163.566 47.6909 160.095 51.1514 160.095 55.4201C160.095 59.6888 163.566 63.1493 167.847 63.1493Z" fill="#6C63FF"/>
<path d="M185.749 50.2673C185.406 50.2673 185.078 50.4031 184.835 50.6446C184.593 50.8862 184.457 51.2139 184.457 51.5555C184.457 51.8972 184.593 52.2248 184.835 52.4664C185.078 52.708 185.406 52.8437 185.749 52.8437H220.076C220.419 52.8437 220.748 52.708 220.99 52.4664C221.232 52.2248 221.368 51.8972 221.368 51.5555C221.368 51.2139 221.232 50.8862 220.99 50.6446C220.748 50.4031 220.419 50.2673 220.076 50.2673H185.749Z" fill="#E6E6E6"/>
<path d="M185.749 57.9965C185.406 57.9965 185.078 58.1322 184.835 58.3738C184.593 58.6153 184.457 58.943 184.457 59.2847C184.457 59.6263 184.593 59.954 184.835 60.1956C185.078 60.4371 185.406 60.5729 185.749 60.5729H246.653C246.995 60.5729 247.324 60.4371 247.566 60.1956C247.808 59.954 247.944 59.6263 247.944 59.2847C247.944 58.943 247.808 58.6153 247.566 58.3738C247.324 58.1322 246.995 57.9965 246.653 57.9965H185.749Z" fill="#E6E6E6"/>
<path d="M126.506 119.642H26.8456C26.3563 119.641 25.8872 119.447 25.5412 119.102C25.1952 118.757 25.0006 118.289 25 117.801V93.1506C25.0006 92.6627 25.1952 92.1949 25.5412 91.8499C25.8872 91.5049 26.3563 91.3109 26.8456 91.3103H126.506C126.996 91.3109 127.465 91.5049 127.811 91.8499C128.157 92.1949 128.351 92.6627 128.352 93.1506V117.801C128.351 118.289 128.157 118.757 127.811 119.102C127.465 119.447 126.996 119.641 126.506 119.642ZM26.8456 92.0464C26.552 92.0467 26.2705 92.1632 26.0629 92.3702C25.8553 92.5772 25.7385 92.8578 25.7382 93.1506V117.801C25.7385 118.094 25.8553 118.375 26.0629 118.582C26.2705 118.789 26.552 118.905 26.8456 118.906H126.506C126.8 118.905 127.081 118.789 127.289 118.582C127.497 118.375 127.613 118.094 127.614 117.801V93.1506C127.613 92.8578 127.497 92.5772 127.289 92.3702C127.081 92.1632 126.8 92.0467 126.506 92.0464H26.8456Z" fill="#E6E6E6"/>
<path d="M39.7646 113.205C44.0455 113.205 47.5159 109.745 47.5159 105.476C47.5159 101.207 44.0455 97.7467 39.7646 97.7467C35.4836 97.7467 32.0132 101.207 32.0132 105.476C32.0132 109.745 35.4836 113.205 39.7646 113.205Z" fill="#6C63FF"/>
<path d="M57.6665 100.323C57.3239 100.323 56.9953 100.459 56.753 100.7C56.5107 100.942 56.3746 101.27 56.3746 101.611C56.3746 101.953 56.5107 102.281 56.753 102.522C56.9953 102.764 57.3239 102.9 57.6665 102.9H93.4705C93.8132 102.9 94.1418 102.764 94.384 102.522C94.6263 102.281 94.7624 101.953 94.7624 101.611C94.7624 101.27 94.6263 100.942 94.384 100.7C94.1418 100.459 93.8132 100.323 93.4705 100.323H57.6665Z" fill="#E6E6E6"/>
<path d="M57.6665 108.052C57.3239 108.052 56.9953 108.188 56.753 108.43C56.5107 108.671 56.3746 108.999 56.3746 109.34C56.3746 109.682 56.5107 110.01 56.753 110.251C56.9953 110.493 57.3239 110.629 57.6665 110.629H118.57C118.913 110.629 119.241 110.493 119.484 110.251C119.726 110.01 119.862 109.682 119.862 109.34C119.862 108.999 119.726 108.671 119.484 108.43C119.241 108.188 118.913 108.052 118.57 108.052H57.6665Z" fill="#E6E6E6"/>
<path d="M216.57 173.746H116.909C116.42 173.746 115.951 173.551 115.605 173.206C115.259 172.861 115.064 172.394 115.064 171.906V147.255C115.064 146.767 115.259 146.299 115.605 145.954C115.951 145.609 116.42 145.415 116.909 145.415H216.57C217.059 145.415 217.528 145.609 217.874 145.954C218.22 146.299 218.415 146.767 218.416 147.255V171.906C218.415 172.394 218.22 172.861 217.874 173.206C217.528 173.551 217.059 173.746 216.57 173.746ZM116.909 146.151C116.616 146.151 116.334 146.268 116.127 146.475C115.919 146.682 115.802 146.962 115.802 147.255V171.906C115.802 172.199 115.919 172.479 116.127 172.686C116.334 172.893 116.616 173.01 116.909 173.01H216.57C216.864 173.01 217.145 172.893 217.353 172.686C217.56 172.479 217.677 172.199 217.677 171.906V147.255C217.677 146.962 217.56 146.682 217.353 146.475C217.145 146.268 216.864 146.151 216.57 146.151H116.909Z" fill="#3F3D56"/>
<path d="M129.828 167.309C134.109 167.309 137.58 163.849 137.58 159.58C137.58 155.312 134.109 151.851 129.828 151.851C125.547 151.851 122.077 155.312 122.077 159.58C122.077 163.849 125.547 167.309 129.828 167.309Z" fill="#6C63FF"/>
<path d="M147.73 154.427C147.387 154.427 147.059 154.563 146.817 154.805C146.574 155.046 146.438 155.374 146.438 155.716C146.438 156.057 146.574 156.385 146.817 156.627C147.059 156.868 147.387 157.004 147.73 157.004H180.581C180.924 157.004 181.252 156.868 181.495 156.627C181.737 156.385 181.873 156.057 181.873 155.716C181.873 155.374 181.737 155.046 181.495 154.805C181.252 154.563 180.924 154.427 180.581 154.427H147.73Z" fill="#E6E6E6"/>
<path d="M147.73 162.157C147.387 162.157 147.059 162.292 146.817 162.534C146.574 162.776 146.438 163.103 146.438 163.445C146.438 163.787 146.574 164.114 146.817 164.356C147.059 164.597 147.387 164.733 147.73 164.733H208.634C208.976 164.733 209.305 164.597 209.547 164.356C209.79 164.114 209.926 163.787 209.926 163.445C209.926 163.103 209.79 162.776 209.547 162.534C209.305 162.292 208.976 162.157 208.634 162.157H147.73Z" fill="#E6E6E6"/>
<path d="M270.183 167.494C265.855 180.442 248.149 166.71 248.149 166.71L252.871 117.667C259.953 112.174 267.429 116.882 267.429 116.882L270.183 167.494Z" fill="#E6E6E6"/>
<path d="M269.254 210.947L275.287 211.011L273.78 228.352L269.254 228.352L269.254 210.947Z" fill="#FFB8B8"/>
<path d="M268.1 226.878H277.012C278.518 226.88 279.961 227.477 281.026 228.539C282.091 229.601 282.69 231.04 282.691 232.541V232.726H268.1V226.878Z" fill="#2F2E41"/>
<path d="M252.898 210.947L246.22 210.947L248.372 228.351L252.898 228.352L252.898 210.947Z" fill="#FFB8B8"/>
<path d="M239.46 232.725V232.541C239.46 231.039 240.059 229.599 241.124 228.537C242.189 227.475 243.634 226.878 245.14 226.878L254.052 226.879L254.052 232.726L239.46 232.725Z" fill="#2F2E41"/>
<path d="M268.846 225.348L260.943 179.406L253.619 224.755L246.2 225.167L244.222 164.405L244.371 164.372C245.597 164.098 274.467 157.776 279.2 166.821L279.224 166.866L275.274 225.554L268.846 225.348Z" fill="#2F2E41"/>
<path d="M260.47 111.92C265.477 111.92 269.536 107.872 269.536 102.88C269.536 97.8872 265.477 93.84 260.47 93.84C255.463 93.84 251.404 97.8872 251.404 102.88C251.404 107.872 255.463 111.92 260.47 111.92Z" fill="#FFB8B8"/>
<path d="M268.086 171.369C267.023 171.075 266.258 169.858 265.676 167.539C265.576 167.139 256.163 127.159 264.123 119.915L265.958 114.833L268.469 116.502C269.357 116.511 278.443 116.74 279.219 122.547C279.979 128.231 282.049 166.314 279.969 168.683C279.928 168.735 279.876 168.777 279.817 168.807C279.758 168.837 279.693 168.854 279.626 168.855C277.519 168.855 276.879 166.523 276.728 165.78C276.227 165.987 274.734 166.747 272.281 169.194C270.761 170.709 269.57 171.435 268.585 171.435C268.417 171.436 268.249 171.413 268.086 171.369Z" fill="#2F2E41"/>
<path d="M248.412 169.194C245.958 166.747 244.465 165.986 243.965 165.78C243.815 166.523 243.175 168.855 241.067 168.855C241 168.854 240.935 168.837 240.876 168.807C240.817 168.777 240.765 168.735 240.725 168.683C238.645 166.314 240.714 128.231 241.474 122.547C242.251 116.74 251.336 116.511 252.224 116.502L254.735 114.833L256.57 119.915C264.529 127.158 255.117 167.139 255.017 167.539C254.436 169.858 253.67 171.075 252.607 171.369C252.445 171.413 252.277 171.436 252.108 171.435C251.123 171.435 249.932 170.709 248.412 169.194Z" fill="#2F2E41"/>
<path d="M267.955 108.044C269.488 106.944 270.65 105.404 271.284 103.63C271.919 101.855 271.997 99.9305 271.508 98.1109C271.019 96.2913 269.986 94.6634 268.546 93.4436C267.106 92.2238 265.328 91.4699 263.449 91.2823C262.614 91.199 261.715 91.2114 261.023 90.7388C260.409 90.3189 260.077 89.5907 259.513 89.1062C259.154 88.8294 258.741 88.6295 258.302 88.5189C257.862 88.4083 257.403 88.3895 256.956 88.4636C256.063 88.6172 255.197 88.9009 254.386 89.3056C252.376 90.1992 250.239 91.2991 249.324 93.2953C248.532 95.0243 248.881 97.1564 250.003 98.6936C251.183 100.215 252.902 101.227 254.808 101.522C256.702 101.805 258.636 101.631 260.45 101.016C261.646 100.64 262.827 100.129 264.081 100.087C265.059 100.054 266.025 100.313 266.856 100.829C267.687 101.346 268.345 102.097 268.747 102.987C269.148 103.877 269.275 104.867 269.111 105.829C268.947 106.792 268.499 107.684 267.826 108.392" fill="#2F2E41"/>
<path d="M218.541 161.82C219.065 161.808 219.581 161.693 220.06 161.482C220.539 161.271 220.971 160.969 221.333 160.591C221.694 160.213 221.978 159.768 222.167 159.282C222.356 158.795 222.447 158.276 222.435 157.754L227.722 148.859L223.637 145.125L218.068 153.889C217.04 153.987 216.091 154.479 215.42 155.261C214.749 156.043 214.408 157.055 214.469 158.082C214.531 159.11 214.989 160.073 215.749 160.771C216.508 161.468 217.509 161.844 218.541 161.82V161.82Z" fill="#FFB8B8"/>
<path d="M279.878 171.564C280.316 171.279 280.694 170.911 280.99 170.48C281.286 170.049 281.494 169.565 281.602 169.054C281.71 168.543 281.716 168.016 281.619 167.503C281.523 166.99 281.326 166.5 281.04 166.063L280.838 155.726L275.393 154.696L275.287 165.07C274.465 165.693 273.918 166.61 273.76 167.627C273.603 168.645 273.847 169.683 274.442 170.525C275.037 171.366 275.936 171.944 276.95 172.138C277.963 172.332 279.013 172.126 279.878 171.564V171.564Z" fill="#FFB8B8"/>
<path d="M220.15 147.518L220.088 147.421L220.149 147.323C228.079 134.625 244.724 118.764 244.892 118.605L244.944 118.555L247 118.534L249.223 124.055C248.531 125.382 229.883 151.332 227.42 153.053C227.224 153.188 227.002 153.281 226.767 153.325C226.533 153.369 226.292 153.363 226.06 153.308C225.65 153.214 225.259 153.048 224.907 152.819C222.635 151.415 220.266 147.702 220.15 147.518Z" fill="#2F2E41"/>
<path d="M274.357 162.008C274.136 161.932 273.934 161.812 273.762 161.655C273.59 161.497 273.452 161.306 273.358 161.093C272.171 158.331 277.259 123.44 277.477 121.956L277.518 121.675L279.238 122.762L279.255 122.836C279.306 123.059 284.316 145.287 282.958 160.057L282.948 160.162L282.852 160.207C282.645 160.302 278.471 162.214 275.69 162.214C275.237 162.226 274.785 162.156 274.357 162.008V162.008Z" fill="#2F2E41"/>
<path d="M308.631 233H210.447C210.349 233 210.255 232.961 210.186 232.892C210.117 232.823 210.078 232.73 210.078 232.632C210.078 232.534 210.117 232.441 210.186 232.372C210.255 232.303 210.349 232.264 210.447 232.264H308.631C308.729 232.264 308.823 232.303 308.892 232.372C308.961 232.441 309 232.534 309 232.632C309 232.73 308.961 232.823 308.892 232.892C308.823 232.961 308.729 233 308.631 233Z" fill="#3F3D56"/>
</g>
<defs>
<clipPath id="clip0_97_902">
<rect width="284" height="193" fill="white" transform="translate(25 40)"/>
</clipPath>
</defs>
</svg>
