<svg width="573" height="524" viewBox="0 0 573 524" fill="none" xmlns="http://www.w3.org/2000/svg">
<path fill-rule="evenodd" clip-rule="evenodd" d="M571.117 323.419V323.419L570.632 326.25L570.043 329.07L569.35 331.874L568.555 334.661L567.658 337.427L566.662 340.171L565.568 342.889L564.379 345.58L563.097 348.24L561.726 350.868L560.269 353.462L558.727 356.02L557.106 358.54L555.407 361.021L553.633 363.46L551.788 365.856L549.875 368.209L547.897 370.516L545.857 372.777L543.758 374.99L541.604 377.156L539.397 379.272L537.14 381.338L534.838 383.354L532.493 385.319L530.108 387.233L527.687 389.097L525.233 390.909L522.75 392.67L520.24 394.38L517.707 396.039L515.153 397.648L512.583 399.208L509.999 400.718L507.404 402.18L504.8 403.595L502.192 404.964L499.582 406.286L496.972 407.565L494.365 408.8L491.764 409.993L489.17 411.145L486.587 412.258L484.017 413.333L481.461 414.372L478.923 415.377L476.405 416.348L473.908 417.289L471.435 418.201L468.987 419.086L466.567 419.946L464.176 420.783L461.816 421.599L459.488 422.396L457.193 423.176L454.933 423.943L452.709 424.697L450.522 425.44L448.373 426.176L446.262 426.907L444.19 427.634L442.157 428.359L440.164 429.085L438.21 429.813L436.297 430.546L434.423 431.285L432.588 432.032L430.792 432.79L429.035 433.559L427.315 434.341L425.632 435.138L423.984 435.95L422.372 436.78L420.794 437.629L419.248 438.496L417.733 439.385L416.248 440.294L414.791 441.225L413.361 442.179L411.956 443.155L410.574 444.155L409.215 445.178L407.875 446.225L406.553 447.296L405.248 448.389L403.958 449.506L402.68 450.646L401.413 451.809L400.155 452.993L398.904 454.199L397.659 455.425L396.418 456.671L395.178 457.937L393.939 459.22L392.699 460.521L391.456 461.838L390.208 463.17L388.955 464.516L387.694 465.875L386.424 467.245L385.145 468.627L383.854 470.018L382.552 471.417L381.235 472.823L379.904 474.235L378.558 475.652L377.196 477.072L375.816 478.494L374.418 479.917L373 481.337L371.562 482.754L370.104 484.165L368.623 485.568L367.119 486.959L365.592 488.338L364.041 489.7L362.465 491.043L360.865 492.365L359.239 493.662L357.587 494.932L355.91 496.173L354.207 497.38L352.479 498.552L350.726 499.686L348.948 500.779L347.146 501.828L345.32 502.831L343.471 503.786L341.601 504.689L339.709 505.538L337.797 506.331L335.866 507.066L333.917 507.741L331.952 508.353L329.972 508.899L327.979 509.379L325.973 509.789L323.957 510.129L321.933 510.396L319.903 510.59L317.867 510.71L315.829 510.755L313.79 510.725L311.752 510.619L309.718 510.439L307.688 510.184L305.665 509.855L303.652 509.453L301.649 508.98L299.658 508.437L297.682 507.826L295.721 507.148L293.778 506.406L291.853 505.602L289.949 504.739L288.066 503.819L286.205 502.845L284.367 501.821L282.553 500.748L280.764 499.63L279.001 498.471L277.263 497.274L275.551 496.041L273.864 494.777L272.204 493.485L270.57 492.167L268.961 490.828L267.377 489.471L265.818 488.099L264.283 486.715L262.771 485.322L261.28 483.923L259.811 482.521L258.363 481.12L256.933 479.721L255.52 478.327L254.125 476.941L252.744 475.565L251.376 474.2L250.021 472.85L248.676 471.515L247.34 470.197L246.012 468.898L244.69 467.619L243.372 466.361L242.057 465.124L240.743 463.911L239.43 462.72L238.115 461.553L236.797 460.41L235.474 459.29L234.147 458.195L232.812 457.122L231.47 456.073L230.119 455.047L228.758 454.042L227.386 453.059L226.002 452.096L224.606 451.153L223.197 450.227L221.774 449.319L220.337 448.427L218.885 447.549L217.419 446.685L215.937 445.833L214.44 444.992L212.927 444.159L211.398 443.335L209.854 442.518L208.293 441.706L206.717 440.898L205.125 440.093L203.517 439.289L201.893 438.485L200.255 437.68L198.601 436.872L196.933 436.06L195.25 435.243L193.554 434.419L191.844 433.588L190.121 432.747L188.386 431.897L186.639 431.035L184.881 430.161L183.112 429.273L181.334 428.37L179.546 427.452L177.749 426.517L175.945 425.565L174.134 424.594L172.317 423.603L170.495 422.592L168.668 421.56L166.838 420.506L165.006 419.429L163.172 418.328L161.337 417.203L159.502 416.053L157.668 414.878L155.836 413.678L154.006 412.451L152.179 411.198L150.355 409.918L148.536 408.611L146.722 407.276L144.913 405.915L143.109 404.525L141.312 403.108L139.522 401.664L137.739 400.191L135.962 398.691L134.194 397.162L132.433 395.606L130.68 394.022L128.935 392.41L127.199 390.77L125.471 389.102L123.751 387.407L122.039 385.684L120.337 383.933L118.642 382.154L116.956 380.348L115.279 378.514L113.611 376.652L111.951 374.763L110.3 372.845L108.658 370.9L107.025 368.927L105.4 366.926L103.785 364.896L102.18 362.839L100.584 360.753L98.9986 358.638L97.4233 356.495L95.8588 354.323L94.3056 352.123L92.7641 349.893L91.2352 347.634L89.7192 345.345L88.2172 343.028L86.7297 340.68L85.2577 338.304L83.8023 335.897L82.3642 333.461L80.9448 330.995L79.5451 328.499L78.1664 325.974L76.81 323.419L75.4772 320.834L74.1695 318.221L72.8884 315.578L71.6353 312.907L70.412 310.207L69.22 307.48L68.0611 304.725L66.9369 301.943L65.8492 299.135L64.7998 296.301L63.7905 293.442L62.8232 290.559L61.8998 287.653L61.0221 284.724L60.1922 281.775L59.4119 278.805L58.6834 275.817L58.0085 272.811L57.3892 269.789L56.8276 266.752L56.3255 263.702L55.8849 260.641L55.5077 257.57L55.1957 254.491L54.9507 251.406L54.7745 248.316L54.6687 245.225L54.635 242.133L54.6749 239.044L54.7898 235.959L54.9811 232.88L55.2501 229.81L55.598 226.751L56.0259 223.706L56.5346 220.677L57.1252 217.667L57.7985 214.677L58.555 211.712L59.3955 208.772L60.3204 205.861L61.3301 202.981L62.4247 200.135L63.6041 197.326L64.868 194.555L66.2159 191.826L67.647 189.14L69.1604 186.5L70.7549 183.907L72.429 181.364L74.1811 178.872L76.0093 176.433L77.9117 174.048L79.8859 171.718L81.9294 169.446L84.0398 167.23L86.2141 165.073L88.4495 162.975L90.7427 160.935L93.0907 158.954L95.49 157.031L97.9372 155.167L100.429 153.36L102.961 151.61L105.53 149.916L108.133 148.275L110.765 146.687L113.423 145.149L116.104 143.661L118.802 142.218L121.516 140.82L124.24 139.463L126.972 138.145L129.709 136.862L132.446 135.612L135.181 134.392L137.911 133.197L140.633 132.025L143.343 130.872L146.041 129.734L148.722 128.608L151.386 127.49L154.03 126.376L156.653 125.263L159.253 124.146L161.828 123.023L164.379 121.889L166.903 120.742L169.402 119.577L171.873 118.393L174.318 117.184L176.737 115.95L179.129 114.686L181.497 113.391L183.84 112.062L186.16 110.698L188.458 109.296L190.736 107.855L192.995 106.374L195.237 104.852L197.465 103.288L199.68 101.683L201.886 100.035L204.083 98.3472L206.276 96.6184L208.465 94.8503L210.655 93.0443L212.848 91.2021L215.046 89.3254L217.252 87.4161L219.468 85.4763L221.697 83.508L223.941 81.5134L226.201 79.495L228.481 77.4551L230.783 75.3965L233.107 73.3219L235.457 71.234L237.833 69.136L240.238 67.0308L242.673 64.9217L245.139 62.8119L247.638 60.7048L250.171 58.6039L252.738 56.5125L255.342 54.4343L257.982 52.3727L260.659 50.3313L263.373 48.3136L266.126 46.323L268.916 44.363L271.745 42.4367L274.611 40.5474L277.515 38.698L280.456 36.8915L283.434 35.1304L286.448 33.4171L289.498 31.7539L292.581 30.1431L295.699 28.587L298.849 27.088L302.03 25.6484L305.242 24.2706L308.484 22.9568L311.752 21.7096L315.048 20.531L318.368 19.4236L321.711 18.3893L325.077 17.4306L328.462 16.5494L331.865 15.748L335.284 15.0281L338.717 14.3919L342.162 13.841L345.617 13.3773L349.08 13.0023L352.548 12.7174L356.019 12.5242L359.492 12.4237L362.962 12.4171L366.429 12.5054L369.889 12.6893L373.34 12.9695L376.78 13.3465L380.206 13.8207L383.615 14.3921L387.006 15.0608L390.376 15.8266L393.721 16.6893L397.041 17.6482L400.332 18.7027L403.593 19.852L406.821 21.0951L410.013 22.4309L413.169 23.858L416.285 25.375L419.36 26.9803L422.392 28.6721L425.379 30.4485L428.319 32.3076L431.212 34.2473L434.055 36.2652L436.848 38.3591L439.588 40.5266L442.275 42.765L444.908 45.0719L447.485 47.4446L450.007 49.8803L452.472 52.3762L454.881 54.9297L457.231 57.5378L459.524 60.1977L461.758 62.9066L463.935 65.6615L466.053 68.4597L468.113 71.2982L470.116 74.1742L472.06 77.0851L473.948 80.0279L475.778 83.0001L477.553 85.999L479.271 89.022L480.935 92.0665L482.544 95.1301L484.101 98.21L485.605 101.304L487.058 104.409L488.462 107.522L489.818 110.642L491.128 113.764L492.393 116.888L493.615 120.009L494.797 123.127L495.941 126.237L497.049 129.339L498.122 132.429L499.165 135.506L500.178 138.567L501.165 141.612L502.127 144.637L503.069 147.641L503.992 150.623L504.899 153.581L505.793 156.515L506.676 159.422L507.552 162.301L508.423 165.152L509.292 167.974L510.163 170.767L511.037 173.528L511.919 176.259L512.81 178.958L513.715 181.625L514.636 184.261L515.576 186.865L516.537 189.437L517.523 191.978L518.534 194.49L519.574 196.973L520.643 199.428L521.743 201.857L522.874 204.262L524.038 206.644L525.235 209.005L526.465 211.348L527.728 213.674L529.022 215.987L530.348 218.288L531.704 220.58L533.088 222.865L534.498 225.146L535.933 227.426L537.39 229.707L538.867 231.991L540.359 234.281L541.865 236.579L543.38 238.888L544.901 241.209L546.424 243.546L547.945 245.898L549.459 248.27L550.963 250.661L552.451 253.074L553.919 255.51L555.362 257.969L556.776 260.454L558.155 262.963L559.495 265.499L560.791 268.061L562.039 270.649L563.232 273.263L564.368 275.902L565.44 278.567L566.446 281.256L567.38 283.969L568.239 286.703L569.019 289.458L569.715 292.233L570.325 295.025L570.846 297.832L571.274 300.653L571.606 303.485L571.842 306.326L571.978 309.173L572.013 312.025L571.945 314.878L571.773 317.73L571.498 320.578L571.117 323.419" fill="#06004A" fill-opacity="0.74"/>
<path fill-rule="evenodd" clip-rule="evenodd" d="M542.926 327.017V327.017L542.417 329.994L541.797 332.958L541.069 335.907L540.232 338.838L539.29 341.747L538.242 344.631L537.093 347.49L535.843 350.319L534.496 353.116L533.054 355.88L531.522 358.607L529.902 361.297L528.197 363.947L526.411 366.555L524.547 369.12L522.608 371.64L520.597 374.113L518.517 376.539L516.373 378.917L514.166 381.244L511.901 383.521L509.581 385.746L507.209 387.918L504.789 390.038L502.324 392.105L499.817 394.118L497.273 396.077L494.693 397.982L492.082 399.834L489.444 401.632L486.781 403.376L484.097 405.069L481.395 406.708L478.678 408.297L475.95 409.834L473.214 411.322L470.472 412.761L467.728 414.151L464.985 415.496L462.244 416.794L459.51 418.049L456.783 419.26L454.068 420.431L451.366 421.561L448.68 422.654L446.012 423.71L443.365 424.732L440.74 425.721L438.14 426.68L435.567 427.61L433.023 428.514L430.51 429.394L428.028 430.252L425.581 431.09L423.169 431.911L420.793 432.717L418.456 433.51L416.156 434.292L413.897 435.066L411.678 435.834L409.5 436.598L407.363 437.361L405.268 438.124L403.214 438.89L401.203 439.66L399.233 440.437L397.304 441.223L395.416 442.02L393.569 442.828L391.761 443.651L389.992 444.488L388.26 445.343L386.565 446.216L384.906 447.108L383.281 448.02L381.688 448.954L380.127 449.91L378.596 450.89L377.093 451.892L375.616 452.919L374.164 453.97L372.734 455.046L371.326 456.147L369.937 457.273L368.565 458.423L367.208 459.597L365.865 460.796L364.533 462.018L363.21 463.263L361.896 464.531L360.587 465.821L359.282 467.131L357.979 468.462L356.677 469.811L355.373 471.179L354.066 472.563L352.755 473.964L351.437 475.379L350.112 476.808L348.777 478.25L347.432 479.702L346.076 481.165L344.706 482.636L343.322 484.114L341.923 485.599L340.508 487.089L339.076 488.582L337.625 490.078L336.155 491.573L334.665 493.067L333.154 494.557L331.621 496.041L330.064 497.515L328.483 498.979L326.878 500.428L325.248 501.86L323.591 503.273L321.909 504.663L320.199 506.027L318.463 507.362L316.7 508.667L314.91 509.936L313.094 511.169L311.251 512.361L309.382 513.51L307.487 514.613L305.568 515.668L303.625 516.671L301.658 517.621L299.669 518.514L297.66 519.348L295.63 520.121L293.581 520.83L291.516 521.474L289.434 522.048L287.339 522.553L285.231 522.984L283.112 523.341L280.984 523.623L278.85 523.827L276.71 523.953L274.567 524L272.424 523.968L270.282 523.857L268.143 523.667L266.009 523.399L263.883 523.053L261.766 522.631L259.661 522.134L257.568 521.563L255.491 520.92L253.43 520.207L251.387 519.427L249.364 518.582L247.362 517.674L245.382 516.707L243.426 515.683L241.494 514.605L239.588 513.477L237.707 512.302L235.853 511.083L234.026 509.824L232.226 508.528L230.454 507.199L228.709 505.84L226.991 504.455L225.3 503.047L223.635 501.62L221.996 500.177L220.382 498.721L218.792 497.257L217.226 495.786L215.682 494.312L214.159 492.839L212.655 491.368L211.171 489.902L209.703 488.445L208.252 486.997L206.814 485.563L205.39 484.143L203.976 482.739L202.572 481.354L201.176 479.988L199.786 478.643L198.4 477.32L197.018 476.02L195.637 474.743L194.256 473.491L192.874 472.264L191.488 471.062L190.098 469.885L188.703 468.733L187.3 467.605L185.889 466.502L184.469 465.423L183.038 464.367L181.595 463.333L180.141 462.32L178.673 461.328L177.192 460.355L175.696 459.4L174.186 458.462L172.66 457.539L171.118 456.631L169.561 455.735L167.987 454.85L166.396 453.975L164.79 453.109L163.166 452.249L161.526 451.395L159.868 450.546L158.195 449.699L156.505 448.854L154.798 448.009L153.076 447.162L151.337 446.312L149.584 445.459L147.815 444.599L146.032 443.733L144.234 442.859L142.423 441.975L140.599 441.081L138.763 440.175L136.915 439.255L135.055 438.322L133.186 437.373L131.306 436.407L129.418 435.424L127.521 434.423L125.618 433.402L123.707 432.36L121.792 431.297L119.872 430.212L117.948 429.103L116.022 427.97L114.094 426.813L112.165 425.63L110.236 424.421L108.308 423.186L106.382 421.923L104.458 420.633L102.538 419.316L100.621 417.97L98.7087 416.596L96.8014 415.193L94.8998 413.761L93.0042 412.3L91.1152 410.81L89.2332 409.291L87.3585 407.742L85.4914 406.165L83.6323 404.558L81.7813 402.921L79.9387 401.255L78.1046 399.56L76.2791 397.836L74.4624 396.083L72.6545 394.3L70.8555 392.488L69.0654 390.647L67.2844 388.777L65.5123 386.878L63.7493 384.949L61.9954 382.991L60.2506 381.005L58.515 378.989L56.7888 376.943L55.0719 374.868L53.3645 372.764L51.6669 370.63L49.9793 368.467L48.3019 366.273L46.635 364.05L44.979 361.796L43.3344 359.513L41.7017 357.199L40.0813 354.854L38.4741 352.479L36.8806 350.072L35.3016 347.635L33.7379 345.167L32.1906 342.668L30.6606 340.137L29.149 337.576L27.6569 334.983L26.1855 332.358L24.7362 329.703L23.3103 327.017L21.9093 324.299L20.5347 321.551L19.1879 318.772L17.8707 315.963L16.5848 313.125L15.3318 310.257L14.1135 307.36L12.9317 304.435L11.7883 301.482L10.6852 298.502L9.62428 295.496L8.60744 292.465L7.63671 289.409L6.71411 286.33L5.84168 283.228L5.0215 280.106L4.25564 276.964L3.54619 273.803L2.89523 270.625L2.30483 267.432L1.77703 264.225L1.31388 261.006L0.917338 257.777L0.589364 254.539L0.331846 251.295L0.146614 248.047L0.0354352 244.796L0 241.545L0.0419208 238.297L0.162724 235.053L0.363847 231.816L0.646632 228.588L1.01232 225.371L1.46206 222.17L1.99688 218.985L2.61774 215.819L3.32544 212.676L4.12074 209.557L5.00426 206.466L5.97651 203.405L7.03788 200.377L8.18849 197.385L9.42827 194.431L10.7569 191.518L12.1738 188.648L13.6782 185.823L15.2691 183.047L16.9452 180.321L18.705 177.647L20.5468 175.026L22.4687 172.461L24.4684 169.954L26.5437 167.505L28.6919 165.115L30.9103 162.785L33.196 160.517L35.5458 158.31L37.9565 156.166L40.4246 154.083L42.9468 152.061L45.5193 150.101L48.1384 148.201L50.8003 146.361L53.5012 144.579L56.2371 142.854L59.0041 141.184L61.7983 139.567L64.6157 138.002L67.4525 136.485L70.3048 135.015L73.1689 133.588L76.041 132.202L78.9175 130.854L81.795 129.539L84.6701 128.256L87.5397 127L90.4007 125.767L93.2503 124.555L96.0858 123.358L98.9047 122.174L101.705 120.999L104.484 119.827L107.241 118.657L109.974 117.483L112.682 116.301L115.363 115.11L118.016 113.903L120.643 112.679L123.241 111.433L125.811 110.162L128.353 108.864L130.869 107.535L133.357 106.174L135.82 104.776L138.259 103.342L140.675 101.867L143.069 100.352L145.444 98.7948L147.801 97.1943L150.143 95.5502L152.472 93.8621L154.79 92.1303L157.1 90.3551L159.404 88.5373L161.706 86.6781L164.009 84.7791L166.314 82.842L168.624 80.8687L170.943 78.8611L173.273 76.8213L175.616 74.7517L177.974 72.6544L180.351 70.532L182.747 68.3871L185.167 66.2225L187.61 64.041L190.08 61.8457L192.578 59.6396L195.106 57.426L197.665 55.2083L200.258 52.9899L202.885 50.7743L205.547 48.5651L208.246 46.3661L210.983 44.1809L213.758 42.0131L216.572 39.8666L219.426 37.745L222.319 35.6519L225.252 33.5909L228.226 31.5654L231.239 29.5788L234.291 27.6343L237.383 25.7347L240.514 23.8829L243.682 22.0814L246.887 20.3325L250.129 18.6388L253.406 17.0026L256.718 15.4264L260.062 13.9126L263.439 12.4639L266.846 11.0825L270.282 9.77097L273.746 8.53176L277.236 7.36723L280.751 6.27976L284.288 5.27164L287.846 4.34511L291.424 3.50236L295.018 2.74548L298.627 2.07647L302.248 1.49725L305.88 1.00962L309.52 0.615278L313.166 0.315776L316.815 0.112556L320.465 0.00691308L324.114 0L327.758 0.0928176L331.395 0.28621L335.023 0.580861L338.639 0.977286L342.24 1.47583L345.824 2.07668L349.389 2.77982L352.931 3.58509L356.448 4.49213L359.937 5.50042L363.397 6.60926L366.825 7.81777L370.218 9.12491L373.574 10.5295L376.891 12.0301L380.166 13.6252L383.399 15.3131L386.586 17.092L389.726 18.9599L392.817 20.9148L395.858 22.9543L398.847 25.0762L401.782 27.2779L404.662 29.5569L407.487 31.9107L410.255 34.3363L412.964 36.8312L415.615 39.3923L418.207 42.0168L420.738 44.7018L423.209 47.4442L425.619 50.2411L427.968 53.0894L430.256 55.9862L432.483 58.9284L434.649 61.9131L436.753 64.9373L438.798 67.998L440.782 71.0924L442.706 74.2177L444.571 77.371L446.378 80.5496L448.127 83.7509L449.818 86.9722L451.454 90.2108L453.036 93.4639L454.563 96.7288L456.039 100.003L457.464 103.283L458.841 106.566L460.171 109.85L461.456 113.133L462.699 116.41L463.901 119.681L465.065 122.942L466.194 126.192L467.29 129.427L468.355 132.646L469.392 135.847L470.404 139.028L471.394 142.187L472.364 145.323L473.317 148.434L474.257 151.518L475.185 154.574L476.106 157.602L477.022 160.6L477.936 163.568L478.851 166.504L479.77 169.407L480.696 172.279L481.634 175.117L482.585 177.922L483.553 180.693L484.541 183.431L485.552 186.135L486.587 188.808L487.651 191.449L488.744 194.059L489.867 196.641L491.023 199.195L492.213 201.724L493.437 204.228L494.695 206.711L495.988 209.175L497.315 211.621L498.676 214.053L500.069 216.472L501.494 218.882L502.949 221.285L504.432 223.684L505.941 226.081L507.472 228.479L509.024 230.881L510.593 233.289L512.176 235.705L513.769 238.133L515.368 240.574L516.969 243.03L518.567 245.504L520.159 247.998L521.74 250.512L523.304 253.05L524.847 255.611L526.364 258.197L527.85 260.809L529.3 263.448L530.709 266.114L532.072 268.808L533.383 271.529L534.637 274.278L535.831 277.053L536.959 279.855L538.016 282.683L538.998 285.535L539.901 288.41L540.72 291.308L541.452 294.225L542.093 297.16L542.641 300.112L543.09 303.078L543.44 306.056L543.688 309.044L543.831 312.038L543.867 315.036L543.796 318.036L543.616 321.035L543.326 324.029L542.926 327.017" fill="#F4F4F4"/>
<g clip-path="url(#clip0_51_269)">
<path d="M166.736 345.747C181.596 345.747 193.643 333.704 193.643 318.849C193.643 303.994 181.596 291.951 166.736 291.951C151.876 291.951 139.83 303.994 139.83 318.849C139.83 333.704 151.876 345.747 166.736 345.747Z" fill="#F2F2F2"/>
<path d="M171.112 341.811C185.972 341.811 198.018 329.768 198.018 314.913C198.018 300.057 185.972 288.015 171.112 288.015C156.251 288.015 144.205 300.057 144.205 314.913C144.205 329.768 156.251 341.811 171.112 341.811Z" fill="#6C63FF"/>
<path d="M525.687 285.15H192.781V286.058H525.687V285.15Z" fill="#3F3D56"/>
<path d="M365.193 90.4212H247.032V87.9866H193.453V90.4212H74.8047C73.7551 90.4212 72.7158 90.6279 71.7461 91.0294C70.7763 91.431 69.8952 92.0195 69.153 92.7615C68.4108 93.5035 67.8221 94.3843 67.4204 95.3537C67.0187 96.3231 66.812 97.3622 66.812 98.4115V260.16C66.812 262.279 67.6541 264.312 69.153 265.81C70.6519 267.309 72.6849 268.151 74.8047 268.151H365.193C367.313 268.151 369.346 267.309 370.845 265.81C372.344 264.312 373.186 262.279 373.186 260.16V98.4115C373.186 97.3622 372.979 96.3231 372.578 95.3537C372.176 94.3843 371.587 93.5035 370.845 92.7615C370.103 92.0195 369.222 91.431 368.252 91.0294C367.282 90.6279 366.243 90.4212 365.193 90.4212V90.4212Z" fill="#3F3D56"/>
<path d="M362.47 104.542H77.5278V265.229H362.47V104.542Z" fill="#F4F3FF"/>
<path d="M219.755 100.16C221.37 100.16 222.678 98.8518 222.678 97.2382C222.678 95.6247 221.37 94.3167 219.755 94.3167C218.141 94.3167 216.833 95.6247 216.833 97.2382C216.833 98.8518 218.141 100.16 219.755 100.16Z" fill="#6C63FF"/>
<path opacity="0.1" d="M280.982 265.229H77.528V104.542L280.982 265.229Z" fill="black"/>
<path d="M122.113 253.205C137.24 253.205 149.502 240.946 149.502 225.824C149.502 210.702 137.24 198.443 122.113 198.443C106.986 198.443 94.7233 210.702 94.7233 225.824C94.7233 240.946 106.986 253.205 122.113 253.205Z" fill="#F2F2F2"/>
<path d="M312.857 191.202H286.24V196.762H312.857V191.202Z" fill="#3F3D56"/>
<path d="M345.036 147.914H254.062V150.296H345.036V147.914Z" fill="#3F3D56"/>
<path d="M345.036 155.459H254.062V157.842H345.036V155.459Z" fill="#3F3D56"/>
<path d="M345.036 163.005H254.062V165.388H345.036V163.005Z" fill="#3F3D56"/>
<path d="M345.036 170.551H254.062V172.933H345.036V170.551Z" fill="#3F3D56"/>
<path d="M345.036 178.096H254.062V180.479H345.036V178.096Z" fill="#3F3D56"/>
<path d="M345.036 107.802H333.912V118.922H345.036V107.802Z" fill="#F2F2F2"/>
<path d="M350.2 124.085H336.693V110.582H350.2V124.085ZM337.28 123.498H349.613V111.169H337.28V123.498Z" fill="#3F3D56"/>
<path d="M381.187 262.307H353.378V260.304C353.378 260.252 353.368 260.201 353.348 260.153C353.328 260.104 353.299 260.061 353.262 260.024C353.225 259.987 353.181 259.958 353.133 259.938C353.085 259.918 353.033 259.907 352.981 259.907H343.447C343.394 259.907 343.343 259.918 343.295 259.938C343.246 259.958 343.203 259.987 343.166 260.024C343.129 260.061 343.099 260.104 343.08 260.153C343.06 260.201 343.049 260.252 343.049 260.304V262.307H337.09V260.304C337.09 260.252 337.08 260.201 337.06 260.153C337.04 260.104 337.011 260.061 336.974 260.024C336.937 259.987 336.893 259.958 336.845 259.938C336.797 259.918 336.745 259.907 336.693 259.907H327.159C327.107 259.907 327.055 259.918 327.007 259.938C326.958 259.958 326.915 259.987 326.878 260.024C326.841 260.061 326.812 260.104 326.792 260.153C326.772 260.201 326.761 260.252 326.761 260.304V262.307H320.802V260.304C320.802 260.252 320.792 260.201 320.772 260.153C320.752 260.104 320.723 260.061 320.686 260.024C320.649 259.987 320.605 259.958 320.557 259.938C320.509 259.918 320.457 259.907 320.405 259.907H310.871C310.819 259.907 310.767 259.918 310.719 259.938C310.671 259.958 310.627 259.987 310.59 260.024C310.553 260.061 310.524 260.104 310.504 260.153C310.484 260.201 310.474 260.252 310.474 260.304V262.307H304.515V260.304C304.515 260.252 304.504 260.201 304.484 260.153C304.464 260.104 304.435 260.061 304.398 260.024C304.361 259.987 304.318 259.958 304.269 259.938C304.221 259.918 304.169 259.907 304.117 259.907H294.583C294.531 259.907 294.479 259.918 294.431 259.938C294.383 259.958 294.339 259.987 294.302 260.024C294.265 260.061 294.236 260.104 294.216 260.153C294.196 260.201 294.186 260.252 294.186 260.304V262.307H288.227V260.304C288.227 260.252 288.216 260.201 288.197 260.153C288.177 260.104 288.147 260.061 288.11 260.024C288.073 259.987 288.03 259.958 287.982 259.938C287.933 259.918 287.882 259.907 287.829 259.907H278.295C278.243 259.907 278.191 259.918 278.143 259.938C278.095 259.958 278.051 259.987 278.014 260.024C277.977 260.061 277.948 260.104 277.928 260.153C277.908 260.201 277.898 260.252 277.898 260.304V262.307H271.939V260.304C271.939 260.252 271.929 260.201 271.909 260.153C271.889 260.104 271.859 260.061 271.823 260.024C271.786 259.987 271.742 259.958 271.694 259.938C271.645 259.918 271.594 259.907 271.542 259.907H262.007C261.955 259.907 261.903 259.918 261.855 259.938C261.807 259.958 261.763 259.987 261.726 260.024C261.689 260.061 261.66 260.104 261.64 260.153C261.62 260.201 261.61 260.252 261.61 260.304V262.307H255.651V260.304C255.651 260.252 255.641 260.201 255.621 260.153C255.601 260.104 255.572 260.061 255.535 260.024C255.498 259.987 255.454 259.958 255.406 259.938C255.358 259.918 255.306 259.907 255.254 259.907H180.568C180.516 259.907 180.464 259.918 180.416 259.938C180.368 259.958 180.324 259.987 180.287 260.024C180.25 260.061 180.221 260.104 180.201 260.153C180.181 260.201 180.171 260.252 180.171 260.304V262.307H174.212V260.304C174.212 260.252 174.201 260.201 174.181 260.153C174.162 260.104 174.132 260.061 174.095 260.024C174.058 259.987 174.015 259.958 173.966 259.938C173.918 259.918 173.867 259.907 173.814 259.907H164.28C164.228 259.907 164.176 259.918 164.128 259.938C164.08 259.958 164.036 259.987 163.999 260.024C163.962 260.061 163.933 260.104 163.913 260.153C163.893 260.201 163.883 260.252 163.883 260.304V262.307H157.924V260.304C157.924 260.252 157.914 260.201 157.894 260.153C157.874 260.104 157.844 260.061 157.808 260.024C157.771 259.987 157.727 259.958 157.679 259.938C157.63 259.918 157.579 259.907 157.527 259.907H147.992C147.94 259.907 147.888 259.918 147.84 259.938C147.792 259.958 147.748 259.987 147.711 260.024C147.674 260.061 147.645 260.104 147.625 260.153C147.605 260.201 147.595 260.252 147.595 260.304V262.307H141.636V260.304C141.636 260.252 141.626 260.201 141.606 260.153C141.586 260.104 141.557 260.061 141.52 260.024C141.483 259.987 141.439 259.958 141.391 259.938C141.343 259.918 141.291 259.907 141.239 259.907H131.704C131.652 259.907 131.601 259.918 131.552 259.938C131.504 259.958 131.46 259.987 131.423 260.024C131.387 260.061 131.357 260.104 131.337 260.153C131.317 260.201 131.307 260.252 131.307 260.304V262.307H125.348V260.304C125.348 260.252 125.338 260.201 125.318 260.153C125.298 260.104 125.269 260.061 125.232 260.024C125.195 259.987 125.151 259.958 125.103 259.938C125.055 259.918 125.003 259.907 124.951 259.907H115.417C115.364 259.907 115.313 259.918 115.264 259.938C115.216 259.958 115.172 259.987 115.136 260.024C115.099 260.061 115.069 260.104 115.049 260.153C115.03 260.201 115.019 260.252 115.019 260.304V262.307H109.06V260.304C109.06 260.252 109.05 260.201 109.03 260.153C109.01 260.104 108.981 260.061 108.944 260.024C108.907 259.987 108.863 259.958 108.815 259.938C108.767 259.918 108.715 259.907 108.663 259.907H99.1287C99.0765 259.907 99.0248 259.918 98.9766 259.938C98.9284 259.958 98.8846 259.987 98.8478 260.024C98.8109 260.061 98.7816 260.104 98.7616 260.153C98.7417 260.201 98.7314 260.252 98.7314 260.304V262.307H92.7724V260.304C92.7724 260.252 92.7622 260.201 92.7422 260.153C92.7222 260.104 92.693 260.061 92.6561 260.024C92.6192 259.987 92.5754 259.958 92.5272 259.938C92.479 259.918 92.4273 259.907 92.3752 259.907H82.8408C82.7886 259.907 82.737 259.918 82.6888 259.938C82.6406 259.958 82.5968 259.987 82.5599 260.024C82.523 260.061 82.4937 260.104 82.4738 260.153C82.4538 260.201 82.4435 260.252 82.4436 260.304V262.307H64.1694C61.6407 262.307 59.2156 263.312 57.4276 265.099C55.6395 266.887 54.635 269.311 54.635 271.839V276.149C54.635 278.677 55.6395 281.101 57.4276 282.888C59.2156 284.676 61.6407 285.68 64.1694 285.68H381.187C383.715 285.68 386.14 284.676 387.928 282.888C389.717 281.101 390.721 278.677 390.721 276.149V271.839C390.721 269.311 389.717 266.887 387.928 265.099C386.14 263.312 383.715 262.307 381.187 262.307Z" fill="black" fill-opacity="0.25"/>
<path d="M128.743 242.926C121.916 242.926 115.242 240.902 109.566 237.11C103.89 233.319 99.4656 227.929 96.853 221.624C94.2405 215.319 93.557 208.381 94.8888 201.687C96.2207 194.994 99.5081 188.846 104.335 184.02C109.163 179.194 115.313 175.908 122.009 174.576C128.704 173.245 135.644 173.928 141.952 176.54C148.259 179.151 153.65 183.574 157.442 189.249C161.235 194.923 163.259 201.595 163.259 208.419C163.249 217.568 159.609 226.339 153.138 232.807C146.667 239.276 137.894 242.915 128.743 242.926ZM128.743 174.821C122.095 174.821 115.598 176.792 110.071 180.483C104.544 184.175 100.236 189.423 97.6922 195.562C95.1485 201.701 94.4829 208.457 95.7797 214.974C97.0765 221.491 100.277 227.478 104.978 232.177C109.678 236.876 115.666 240.076 122.186 241.372C128.705 242.668 135.463 242.003 141.604 239.46C147.745 236.917 152.994 232.611 156.687 227.085C160.38 221.56 162.351 215.064 162.351 208.419C162.341 199.512 158.797 190.972 152.496 184.673C146.196 178.374 137.653 174.831 128.743 174.821V174.821Z" fill="#3F3D56"/>
<path d="M436.67 96.7283H320.857V97.6363H436.67V96.7283Z" fill="#3F3D56"/>
<path d="M572.013 336.456H239.106V337.364H572.013V336.456Z" fill="#3F3D56"/>
<path d="M257.954 378.226H142.141V379.134H257.954V378.226Z" fill="#3F3D56"/>
<path d="M281.266 331.669H268.549V344.381H281.266V331.669Z" fill="#6C63FF"/>
<path d="M288.987 337.117H273.545V321.68H288.987V337.117ZM274.216 336.446H288.315V322.351H274.216V336.446Z" fill="#3F3D56"/>
<path d="M428.871 91.9413H416.155V104.654H428.871V91.9413Z" fill="#6C63FF"/>
<path d="M436.592 97.3896H421.15V81.9526H436.592V97.3896ZM421.822 96.7185H435.921V82.6238H421.822V96.7185Z" fill="#3F3D56"/>
<path d="M556.947 331.669H544.231V344.381H556.947V331.669Z" fill="#6C63FF"/>
<path d="M564.668 337.117H549.226V321.68H564.668V337.117ZM549.898 336.446H563.997V322.351H549.898V336.446Z" fill="#3F3D56"/>
<path d="M534.771 187.268H533.691V157.683C533.691 155.435 533.248 153.208 532.387 151.13C531.526 149.053 530.264 147.165 528.674 145.575C527.083 143.985 525.195 142.724 523.117 141.863C521.039 141.003 518.811 140.56 516.562 140.56H453.862C451.613 140.56 449.386 141.003 447.307 141.863C445.229 142.724 443.341 143.985 441.751 145.575C440.16 147.165 438.898 149.053 438.038 151.13C437.177 153.208 436.734 155.435 436.734 157.683V319.99C436.734 322.239 437.177 324.465 438.038 326.543C438.898 328.62 440.16 330.508 441.751 332.098C443.341 333.688 445.229 334.949 447.307 335.81C449.386 336.67 451.613 337.113 453.862 337.113H516.562C518.811 337.113 521.039 336.67 523.117 335.81C525.195 334.949 527.083 333.688 528.674 332.098C530.264 330.508 531.526 328.62 532.387 326.543C533.248 324.465 533.691 322.239 533.691 319.99V208.328H534.771V187.268Z" fill="#3F3D56"/>
<path d="M530.043 158.689V320.76C530.044 324.151 528.696 327.404 526.298 329.803C523.899 332.201 520.646 333.549 517.253 333.55H454.251C450.858 333.549 447.605 332.201 445.207 329.803C442.808 327.404 441.461 324.151 441.462 320.76V158.689C441.462 155.299 442.809 152.047 445.208 149.649C447.606 147.252 450.859 145.904 454.251 145.904H461.895C461.519 146.826 461.375 147.827 461.477 148.818C461.579 149.809 461.923 150.76 462.479 151.586C463.035 152.413 463.785 153.09 464.665 153.559C465.544 154.027 466.525 154.272 467.522 154.272H503.442C504.439 154.272 505.42 154.027 506.299 153.559C507.179 153.09 507.929 152.413 508.485 151.586C509.041 150.76 509.385 149.809 509.487 148.818C509.589 147.827 509.446 146.826 509.069 145.904H517.253C520.645 145.904 523.898 147.252 526.297 149.649C528.695 152.047 530.043 155.299 530.043 158.689V158.689Z" fill="#F5F5F5"/>
<path d="M495.136 252.766H476.368V258.326H495.136V252.766Z" fill="#3F3D56"/>
<path d="M517.826 209.478H453.679V211.861H517.826V209.478Z" fill="#3F3D56"/>
<path d="M517.826 217.024H453.679V219.407H517.826V217.024Z" fill="#3F3D56"/>
<path d="M517.826 224.569H453.679V226.952H517.826V224.569Z" fill="#3F3D56"/>
<path d="M517.826 232.115H453.679V234.498H517.826V232.115Z" fill="#3F3D56"/>
<path d="M517.826 239.661H453.679V242.044H517.826V239.661Z" fill="#3F3D56"/>
<path d="M487.993 177.834H476.87V188.954H487.993V177.834Z" fill="#F2F2F2"/>
<path d="M481.128 180.615V194.117H494.635V180.615H481.128ZM494.049 193.532H481.714V181.2H494.049V193.532Z" fill="#3F3D56"/>
<path opacity="0.1" d="M530.043 303.452V320.76C530.044 324.151 528.696 327.404 526.298 329.803C523.899 332.201 520.646 333.549 517.253 333.55H454.251C450.858 333.549 447.605 332.201 445.207 329.803C442.808 327.404 441.461 324.151 441.462 320.76V233.491L494.54 275.411L495.449 276.129L505.322 283.924L506.244 284.655L530.043 303.452Z" fill="black"/>
<path d="M480.302 328.297C491.306 328.297 500.226 319.38 500.226 308.38C500.226 297.38 491.306 288.463 480.302 288.463C469.299 288.463 460.379 297.38 460.379 308.38C460.379 319.38 469.299 328.297 480.302 328.297Z" fill="#F2F2F2"/>
<path d="M200.047 379.134C192.232 379.134 184.593 376.818 178.095 372.477C171.597 368.137 166.533 361.968 163.542 354.75C160.552 347.532 159.769 339.59 161.294 331.928C162.818 324.265 166.582 317.227 172.108 311.703C177.634 306.178 184.674 302.416 192.339 300.892C200.004 299.368 207.948 300.15 215.168 303.14C222.388 306.13 228.559 311.193 232.901 317.688C237.243 324.184 239.56 331.821 239.56 339.634C239.548 350.106 235.382 360.147 227.974 367.552C220.567 374.957 210.523 379.122 200.047 379.134ZM200.047 301.041C192.412 301.041 184.948 303.305 178.6 307.545C172.251 311.786 167.303 317.813 164.382 324.865C161.46 331.917 160.695 339.677 162.185 347.163C163.674 354.649 167.351 361.526 172.75 366.923C178.149 372.32 185.027 375.996 192.516 377.485C200.005 378.974 207.767 378.21 214.821 375.289C221.875 372.368 227.904 367.421 232.146 361.075C236.388 354.728 238.652 347.267 238.652 339.634C238.64 329.402 234.569 319.593 227.332 312.358C220.095 305.123 210.282 301.053 200.047 301.041V301.041Z" fill="white"/>
<path d="M486.175 323.743C481.234 323.743 476.405 322.278 472.297 319.534C468.189 316.79 464.987 312.89 463.097 308.327C461.206 303.764 460.711 298.743 461.675 293.899C462.639 289.055 465.018 284.606 468.512 281.114C472.005 277.621 476.456 275.243 481.301 274.279C486.147 273.316 491.169 273.81 495.734 275.7C500.298 277.59 504.199 280.791 506.944 284.898C509.689 289.004 511.154 293.832 511.154 298.771C511.147 305.392 508.512 311.739 503.829 316.42C499.147 321.102 492.797 323.735 486.175 323.743V323.743ZM486.175 274.708C481.414 274.708 476.76 276.119 472.802 278.763C468.843 281.407 465.758 285.165 463.936 289.562C462.114 293.959 461.637 298.798 462.566 303.466C463.495 308.134 465.787 312.421 469.154 315.787C472.52 319.152 476.809 321.444 481.479 322.372C486.148 323.301 490.988 322.824 495.386 321.003C499.785 319.182 503.544 316.097 506.189 312.14C508.834 308.183 510.246 303.53 510.246 298.771C510.239 292.391 507.7 286.275 503.188 281.764C498.675 277.252 492.557 274.715 486.175 274.708Z" fill="#3F3D56"/>
</g>
<defs>
<clipPath id="clip0_51_269">
<rect width="517.378" height="297.182" fill="white" transform="translate(54.635 81.9526)"/>
</clipPath>
</defs>
</svg>
